<svg width="357" height="417" viewBox="0 0 357 417" fill="none" xmlns="http://www.w3.org/2000/svg">
<g opacity="0.3">
<circle opacity="0.1" cx="208.438" cy="208.562" r="32.4088" stroke="white" stroke-width="2"/>
<path opacity="0.1" d="M287.149 245C292.286 233.922 295.153 221.577 295.153 208.562C295.153 160.67 256.33 121.847 208.438 121.847C160.546 121.847 121.723 160.67 121.723 208.562C121.723 256.454 160.546 295.277 208.438 295.277C228.502 295.277 246.974 288.463 261.667 277.023" stroke="white" stroke-width="5"/>
<path opacity="0.1" d="M114.333 103.529C139.293 81.1509 172.276 67.54 208.438 67.54C286.322 67.54 349.46 130.678 349.46 208.562C349.46 286.446 286.322 349.584 208.438 349.584C130.554 349.584 67.416 286.446 67.416 208.562C67.416 175.171 79.0213 144.49 98.4184 120.333" stroke="white" stroke-width="10"/>
<circle opacity="0.1" cx="208" cy="209" r="163.358" stroke="white" stroke-width="5"/>
<path opacity="0.1" d="M42.7606 321.667C20.736 289.467 7.854 250.519 7.854 208.562C7.854 127.686 55.7192 57.9893 124.667 26.2552M69 352.753C105.094 387.664 154.257 409.146 208.438 409.146C319.217 409.146 409.022 319.341 409.022 208.562C409.022 97.7825 319.217 7.97803 208.438 7.97803C184.404 7.97803 161.357 12.2051 140 19.9564" stroke="white" stroke-width="15"/>
</g>
</svg>
