<svg width="52" height="40" viewBox="0 0 52 40" fill="none" xmlns="http://www.w3.org/2000/svg">
<g opacity="0.8">
<path d="M40.714 20.6645C41.0139 20.1464 40.837 19.4833 40.3189 19.1834C39.8009 18.8837 39.1377 19.0604 38.8378 19.5785C36.1914 24.1516 31.2722 26.9924 26 26.9924C20.9394 26.9924 16.2045 24.3756 13.492 20.1215C16.2045 15.8673 20.9394 13.2506 26 13.2506C29.169 13.2506 32.1916 14.2371 34.7408 16.1035C35.224 16.457 35.9021 16.3523 36.2557 15.8693C36.6093 15.3863 36.5044 14.7081 36.0214 14.3544C33.0981 12.2141 29.6326 11.0828 26 11.0828C19.9567 11.0828 14.3185 14.3382 11.2859 19.5787C11.0915 19.9145 11.0915 20.3286 11.2859 20.6646C14.3187 25.9051 19.9568 29.1604 26 29.1604C32.0432 29.1602 37.6814 25.9048 40.714 20.6645Z" fill="white"/>
<path d="M25.9999 23.9301C25.4013 23.9301 24.916 24.4154 24.916 25.014C24.916 25.6126 25.4013 26.0979 25.9999 26.0979C29.2954 26.0979 31.9764 23.4168 31.9764 20.1214C31.9764 16.8259 29.2953 14.1448 25.9999 14.1448C22.7046 14.1448 20.0234 16.8259 20.0234 20.1214C20.0234 20.72 20.5087 21.2053 21.1073 21.2053C21.7059 21.2053 22.1912 20.72 22.1912 20.1214C22.1912 18.0212 23.8999 16.3126 25.9999 16.3126C28.0999 16.3126 29.8086 18.0212 29.8086 20.1214C29.8086 22.2216 28.1001 23.9301 25.9999 23.9301Z" fill="white"/>
</g>
<path d="M6 5H3C1.89543 5 1 5.89543 1 7V10M6 35H3C1.89543 35 1 34.1046 1 33V30" stroke="#8AAEE6" stroke-width="2" stroke-linecap="round"/>
<path d="M46 5H49C50.1046 5 51 5.89543 51 7V10M46 35H49C50.1046 35 51 34.1046 51 33V30" stroke="#8AAEE6" stroke-width="2" stroke-linecap="round"/>
</svg>
