<svg width="764" height="764" viewBox="0 0 764 764" fill="none" xmlns="http://www.w3.org/2000/svg">
<g opacity="0.3">
<circle opacity="0.1" cx="381.465" cy="382.501" r="38.3477" transform="rotate(179.837 381.465 382.501)" stroke="white" stroke-width="2"/>
<path opacity="0.1" d="M288.208 339.65C282.167 352.776 278.816 367.393 278.859 382.792C279.02 439.46 325.089 485.268 381.756 485.107C438.424 484.946 484.232 438.877 484.071 382.21C483.91 325.542 437.841 279.735 381.174 279.896C357.433 279.963 335.599 288.088 318.252 301.673" stroke="white" stroke-width="5"/>
<path opacity="0.1" d="M493.167 506.465C463.708 533.027 424.727 549.243 381.939 549.365C289.783 549.626 214.863 475.131 214.601 382.975C214.34 290.819 288.835 215.899 380.991 215.638C473.147 215.376 548.067 289.871 548.329 382.027C548.441 421.537 534.812 457.879 511.942 486.528" stroke="white" stroke-width="10"/>
<circle opacity="0.1" cx="381.982" cy="381.981" r="193.293" transform="rotate(179.837 381.982 381.981)" stroke="white" stroke-width="5"/>
<path opacity="0.1" d="M577.122 248.114C603.291 286.14 618.664 332.182 618.805 381.827C619.077 477.524 562.675 560.153 481.199 597.934M545.97 211.419C503.145 170.232 444.9 144.979 380.791 145.161C249.712 145.533 143.753 252.096 144.125 383.175C144.497 514.254 251.059 620.214 382.139 619.841C410.577 619.761 437.833 614.682 463.078 605.438" stroke="white" stroke-width="15"/>
<path opacity="0.1" d="M696.897 545.954C637.837 659.146 519.525 736.568 382.99 736.955C318.983 737.137 258.886 720.367 206.948 690.873M717.368 498.566C730.168 461.743 737.072 422.168 736.956 380.974C736.399 184.927 577.02 26.4512 380.974 27.0078C184.927 27.5644 26.4512 186.943 27.0078 382.989C27.1687 439.661 40.601 493.193 64.3541 540.651" stroke="white" stroke-width="50"/>
<path opacity="0.1" d="M736.956 380.974C737.512 577.02 579.036 736.399 382.99 736.955" stroke="white" stroke-width="10"/>
</g>
</svg>
