<svg width="923" height="820" viewBox="0 0 923 820" fill="none" xmlns="http://www.w3.org/2000/svg">
<g opacity="0.3">
<circle opacity="0.1" cx="448.657" cy="474.343" r="48.6131" stroke="white" stroke-width="2"/>
<path opacity="0.1" d="M566.724 529C574.429 512.383 578.73 493.865 578.73 474.343C578.73 402.506 520.494 344.27 448.657 344.27C376.82 344.27 318.584 402.506 318.584 474.343C318.584 546.18 376.82 604.416 448.657 604.416C478.753 604.416 506.461 594.195 528.5 577.035" stroke="white" stroke-width="5"/>
<path opacity="0.1" d="M307.5 316.794C344.94 283.226 394.414 262.81 448.657 262.81C565.483 262.81 660.19 357.517 660.19 474.343C660.19 591.169 565.483 685.876 448.657 685.876C331.831 685.876 237.124 591.169 237.124 474.343C237.124 424.256 254.532 378.235 283.628 342" stroke="white" stroke-width="10"/>
<circle opacity="0.1" cx="448" cy="475" r="245.036" stroke="white" stroke-width="5"/>
<path opacity="0.1" d="M200.141 644C167.104 595.7 147.781 537.278 147.781 474.343C147.781 353.029 219.579 248.484 323 200.883M239.5 690.63C293.64 742.996 367.386 775.219 448.657 775.219C614.826 775.219 749.533 640.512 749.533 474.343C749.533 308.174 614.826 173.467 448.657 173.467C412.606 173.467 378.035 179.808 346 191.435" stroke="white" stroke-width="15"/>
<path opacity="0.1" d="M49.3758 266C124.653 122.72 274.914 25 448 25C529.14 25 605.265 46.4752 671 84.0519M23.2537 326C6.89543 372.634 -2 422.778 -2 475C-2 723.528 199.472 925 448 925C696.528 925 898 723.528 898 475C898 403.158 881.165 335.248 851.224 275" stroke="white" stroke-width="50"/>
<path opacity="0.1" d="M-2 475C-2 226.472 199.472 25 448 25" stroke="white" stroke-width="10"/>
</g>
</svg>
