<svg width="126" height="122" viewBox="0 0 126 122" fill="none" xmlns="http://www.w3.org/2000/svg">
<g clip-path="url(#clip0)">
<circle opacity="0.5" cx="62.2001" cy="63.2266" r="47" transform="rotate(-45 62.2001 63.2266)" fill="#030304" fill-opacity="0.5" stroke="white" stroke-width="2" stroke-linecap="round"/>
<g filter="url(#filter0_d)">
<path d="M78.2002 62.0013C79.5335 62.7711 79.5335 64.6956 78.2002 65.4654L55.7002 78.4558C54.3669 79.2256 52.7002 78.2634 52.7002 76.7238V50.743C52.7002 49.2034 54.3669 48.2412 55.7002 49.011L78.2002 62.0013Z" fill="white"/>
</g>
<path opacity="0.3" d="M15.0981 30.5499C-0.174514 52.3445 -0.0771041 81.616 17.1458 101.755C34.3687 121.894 63.2706 126.532 87.1709 114.825" stroke="white" stroke-linecap="round"/>
<path d="M22.6058 24.7091C22.1577 25.1688 21.6526 25.4892 21.0905 25.6702C20.5284 25.8428 19.9665 25.8648 19.4048 25.7361C18.843 25.599 18.3387 25.3126 17.8919 24.877C17.4451 24.4414 17.1482 23.9466 17.0012 23.3926C16.854 22.8302 16.8618 22.2679 17.0244 21.7057C17.1869 21.1351 17.4943 20.6178 17.9467 20.1539C18.3278 19.7629 18.74 19.4777 19.1833 19.2981C19.6307 19.1142 20.088 19.0405 20.5552 19.0771L20.5204 20.3504C19.8707 20.3119 19.326 20.5183 18.8862 20.9693C18.6139 21.2486 18.4333 21.5585 18.3443 21.8991C18.2509 22.2354 18.2531 22.5727 18.3507 22.9109C18.4525 23.2448 18.643 23.5479 18.9223 23.8202C19.2015 24.0924 19.5093 24.2752 19.8457 24.3686C20.1863 24.4576 20.5257 24.4533 20.8639 24.3557C21.1978 24.2538 21.5009 24.0633 21.7731 23.7841C22.2129 23.333 22.4032 22.7811 22.344 22.1285L23.6161 22.0614C23.6687 22.5317 23.6088 22.9929 23.4363 23.4448C23.2638 23.8967 22.987 24.3182 22.6058 24.7091Z" fill="white"/>
<path d="M31.6234 16.7902L29.4837 13.6849L29.7102 17.2942L29.1757 17.6606L25.9316 16.2073L28.0231 19.2582L26.8948 20.0317L23.3326 14.8355L24.3273 14.1536L28.4858 16.0494L28.1874 11.5074L29.1821 10.8255L32.7517 16.0167L31.6234 16.7902Z" fill="white"/>
<path d="M39.02 12.697C38.4256 12.9697 37.8296 13.088 37.2322 13.0518C36.6401 13.0132 36.1052 12.8328 35.6273 12.5107C35.1525 12.1807 34.7862 11.7348 34.5285 11.1731C34.2708 10.6114 34.173 10.0456 34.2351 9.47586C34.3001 8.89812 34.511 8.37227 34.8679 7.89829C35.2302 7.42181 35.7086 7.04722 36.303 6.77452C36.8974 6.50181 37.4907 6.38479 38.0827 6.42344C38.6748 6.46209 39.211 6.64519 39.6913 6.97274C40.1691 7.29483 40.5369 7.73673 40.7946 8.29844C41.0523 8.86015 41.1486 9.42987 41.0836 10.0076C41.016 10.5799 40.8039 11.103 40.447 11.577C40.0901 12.051 39.6145 12.4243 39.02 12.697ZM38.5022 11.5681C38.8403 11.413 39.1106 11.1966 39.3133 10.9188C39.5134 10.6355 39.626 10.3198 39.6511 9.97164C39.6817 9.62096 39.6156 9.26838 39.453 8.9139C39.2904 8.55942 39.0662 8.2794 38.7804 8.07382C38.5002 7.86575 38.1886 7.74791 37.8459 7.7203C37.5007 7.68725 37.159 7.74827 36.8209 7.90339C36.4828 8.05851 36.2137 8.27769 36.0135 8.56093C35.8109 8.83872 35.6943 9.15296 35.6638 9.50364C35.6387 9.85182 35.7074 10.2032 35.8701 10.5576C36.0327 10.9121 36.2541 11.1934 36.5344 11.4015C36.8202 11.607 37.1357 11.7263 37.4809 11.7594C37.8236 11.787 38.164 11.7233 38.5022 11.5681Z" fill="white"/>
<path d="M48.6301 3.96881L46.6884 4.51126L48.0639 9.43473L46.677 9.8222L45.3015 4.89873L43.3686 5.43875L43.0489 4.29457L48.3104 2.82463L48.6301 3.96881Z" fill="white"/>
<path d="M55.4406 1.72668C55.9949 1.66279 56.4854 1.69988 56.912 1.83795C57.3446 1.97533 57.6907 2.20118 57.9504 2.51552C58.2101 2.82985 58.3667 3.21948 58.4203 3.6844C58.4732 4.14336 58.4093 4.55841 58.2286 4.92954C58.0472 5.29471 57.7615 5.59338 57.3715 5.82555C56.9868 6.05108 56.5173 6.19579 55.963 6.25967L54.7023 6.40496L54.9012 8.13054L53.4528 8.29746L52.7315 2.03889L55.4406 1.72668ZM55.7465 5.08876C56.1816 5.03861 56.5018 4.9081 56.707 4.69722C56.9115 4.48038 56.9939 4.1991 56.954 3.85339C56.9135 3.50172 56.7693 3.24654 56.5215 3.08787C56.273 2.92324 55.9312 2.86599 55.4961 2.91614L54.3159 3.05215L54.5663 5.22477L55.7465 5.08876Z" fill="white"/>
<path d="M67.1895 6.72439L67.1239 7.89255L62.2536 7.6191L62.6067 1.329L67.3602 1.5959L67.2947 2.76406L63.9879 2.57839L63.9112 3.94424L66.8316 4.10821L66.768 5.24043L63.8476 5.07646L63.7659 6.53217L67.1895 6.72439Z" fill="white"/>
<path d="M76.2857 4.43392L74.3346 3.92655L73.0481 8.87401L71.6544 8.5116L72.941 3.56414L70.9986 3.05904L71.2976 1.90928L76.5847 3.28416L76.2857 4.43392Z" fill="white"/>
<path d="M82.688 6.91009C83.4113 7.16824 83.9076 7.52694 84.1769 7.98618C84.4519 8.44744 84.4764 8.99452 84.2505 9.62742C84.0105 10.2999 83.6123 10.7375 83.0557 10.9402C82.5069 11.1393 81.8454 11.1007 81.0712 10.8244L78.3927 9.86843L80.5103 3.935L81.875 4.42205L81.1792 6.37161L82.688 6.91009ZM81.3579 9.78C81.7139 9.90706 82.0221 9.9183 82.2824 9.81371C82.5483 9.71113 82.7408 9.49315 82.8598 9.15974C83.0796 8.5438 82.8109 8.1007 82.0537 7.83045L80.8162 7.38877L80.1204 9.33833L81.3579 9.78Z" fill="white"/>
<path d="M98.0728 15.0679C98.2973 15.3997 98.4066 15.73 98.4005 16.0588C98.3945 16.3877 98.2716 16.6982 98.0318 16.9904C97.6777 17.4217 97.2371 17.6228 96.7099 17.5936C96.1873 17.5683 95.6222 17.3063 95.0147 16.8076L92.6147 14.8376L96.6119 9.96802L98.8797 11.8296C99.4455 12.294 99.7966 12.7646 99.933 13.2415C100.069 13.7183 99.9721 14.1585 99.6409 14.5619C99.443 14.8031 99.2076 14.9669 98.9347 15.0535C98.6657 15.1354 98.3784 15.1402 98.0728 15.0679ZM96.0759 12.9048L97.1263 13.767C97.3721 13.9688 97.5976 14.0723 97.8028 14.0777C98.0117 14.0785 98.1962 13.9815 98.356 13.7867C98.5121 13.5966 98.5671 13.3972 98.521 13.1886C98.4795 12.9837 98.3382 12.7824 98.0971 12.5844L97.0466 11.7222L96.0759 12.9048ZM95.6582 15.9386C96.1869 16.3726 96.6225 16.3808 96.9651 15.9635C97.2963 15.56 97.1976 15.1412 96.6689 14.7073L95.4306 13.6908L94.4199 14.9221L95.6582 15.9386Z" fill="white"/>
<path d="M104.587 17.2342L105.556 18.3117L102.505 21.0557L107.566 20.547L108.481 21.5642L103.796 25.7765L102.833 24.7057L105.878 21.9677L100.823 22.4705L99.9028 21.4465L104.587 17.2342Z" fill="white"/>
<path d="M111.188 32.745L109.117 34.1333L108.365 33.012L109.449 32.2853L106.973 28.5924L105.89 29.3191L105.138 28.1978L107.213 26.817L107.354 27.0263C107.574 27.3336 107.952 27.4017 108.488 27.2306C109.023 27.0594 109.717 26.7098 110.569 26.1817L112.246 25.144L114.943 29.1657L110.697 32.0124L111.188 32.745ZM111.174 27.3259C110.534 27.7186 109.976 28.0171 109.499 28.2214C109.027 28.4223 108.636 28.5074 108.326 28.4766L109.895 30.8164L113.154 28.6312L111.951 26.8371L111.174 27.3259Z" fill="white"/>
<path d="M113.001 40.4019L111.922 40.8546L110.034 36.3564L115.844 33.919L117.686 38.3092L116.607 38.7619L115.326 35.7078L114.064 36.2371L115.196 38.9343L114.15 39.373L113.018 36.6758L111.674 37.2399L113.001 40.4019Z" fill="white"/>
<path d="M114.077 46.5621C113.935 45.9239 113.943 45.3164 114.104 44.7396C114.265 44.1686 114.553 43.6831 114.968 43.283C115.39 42.8875 115.902 42.6224 116.505 42.4876C117.108 42.3528 117.682 42.3752 118.226 42.5548C118.778 42.739 119.248 43.055 119.637 43.503C120.027 43.9567 120.294 44.5028 120.437 45.141C120.579 45.7793 120.57 46.3839 120.408 46.9548C120.247 47.5258 119.956 48.0119 119.536 48.4133C119.121 48.8134 118.612 49.0808 118.009 49.2156C117.406 49.3504 116.828 49.3257 116.277 49.1415C115.731 48.9561 115.264 48.6394 114.875 48.1914C114.486 47.7435 114.22 47.2004 114.077 46.5621ZM115.29 46.2913C115.371 46.6543 115.526 46.9639 115.755 47.22C115.991 47.4749 116.276 47.6509 116.611 47.7481C116.948 47.8512 117.306 47.8602 117.687 47.7751C118.067 47.6901 118.388 47.5293 118.649 47.2927C118.911 47.062 119.091 46.782 119.19 46.4526C119.294 46.1218 119.306 45.7749 119.224 45.4119C119.143 45.0489 118.985 44.7399 118.75 44.4851C118.52 44.229 118.238 44.0493 117.901 43.9463C117.566 43.8491 117.208 43.843 116.827 43.928C116.446 44.0131 116.125 44.171 115.863 44.4017C115.603 44.6382 115.42 44.9219 115.316 45.2526C115.217 45.582 115.208 45.9282 115.29 46.2913Z" fill="white"/>
<path d="M112.095 100.019L107.057 96.2354L107.933 95.0697L109.998 96.6209L111.717 94.3325L109.652 92.7813L110.527 91.6155L115.565 95.3991L114.689 96.5648L112.703 95.073L110.984 97.3614L112.97 98.8532L112.095 100.019Z" fill="white"/>
<path d="M102.592 102.682L104.734 100.69L104.223 99.3211L105.317 98.3036L107.551 104.829L106.497 105.81L100.144 103.115L101.264 102.073L102.592 102.682ZM103.682 103.18L106.056 104.265L105.145 101.819L103.682 103.18Z" fill="white"/>
<path d="M95.7477 106.719C96.2806 106.361 96.8407 106.151 97.4279 106.089C98.0135 106.035 98.568 106.129 99.0913 106.37C99.6131 106.62 100.048 107.003 100.396 107.521C100.744 108.039 100.933 108.584 100.963 109.157C100.992 109.737 100.869 110.286 100.595 110.803C100.318 111.328 99.9115 111.771 99.3736 112.133C98.9203 112.437 98.4584 112.632 97.9877 112.717C97.5121 112.805 97.0494 112.783 96.5997 112.652L96.8949 111.413C97.5228 111.583 98.0983 111.493 98.6213 111.142C98.945 110.924 99.1854 110.658 99.3424 110.343C99.5027 110.033 99.5698 109.702 99.5436 109.351C99.5124 109.004 99.3881 108.668 99.1706 108.344C98.9532 108.021 98.6894 107.778 98.3793 107.618C98.0642 107.461 97.7312 107.396 97.3801 107.422C97.0325 107.453 96.6967 107.577 96.373 107.795C95.85 108.146 95.5506 108.647 95.4746 109.298L94.2159 109.103C94.2608 108.632 94.4141 108.193 94.6756 107.786C94.9371 107.379 95.2945 107.023 95.7477 106.719Z" fill="white"/>
<path d="M124.021 65.4792L117.733 65.0963L117.821 63.65L122.924 63.9607L123.096 61.1219L117.994 60.8112L118.082 59.3649L124.37 59.7478L124.021 65.4792Z" fill="white"/>
<path d="M122.555 73.034C122.423 73.5763 122.219 74.0237 121.942 74.3763C121.664 74.7347 121.332 74.9814 120.947 75.1164C120.563 75.2515 120.143 75.2638 119.688 75.1533C119.239 75.0443 118.872 74.8409 118.586 74.543C118.306 74.2466 118.124 73.8753 118.041 73.4291C117.963 72.9901 117.989 72.4995 118.121 71.9573L118.42 70.7241L116.732 70.3142L117.076 68.8974L123.199 70.384L122.555 73.034ZM119.294 72.1589C119.191 72.5845 119.203 72.9301 119.33 73.1955C119.463 73.4624 119.698 73.6369 120.036 73.719C120.38 73.8025 120.67 73.7555 120.904 73.5778C121.145 73.4015 121.316 73.1006 121.42 72.675L121.7 71.5205L119.575 71.0044L119.294 72.1589Z" fill="white"/>
<path d="M114.164 80.2061C114.417 79.6027 114.775 79.1118 115.238 78.7334C115.7 78.3605 116.215 78.1306 116.785 78.0435C117.358 77.9643 117.929 78.0439 118.5 78.2822C119.07 78.5205 119.525 78.8702 119.866 79.3312C120.21 79.8 120.411 80.3296 120.47 80.92C120.526 81.5159 120.429 82.1156 120.176 82.719C119.924 83.3224 119.567 83.8105 119.106 84.1834C118.644 84.5563 118.126 84.7851 117.551 84.8698C116.981 84.9569 116.411 84.8812 115.841 84.6429C115.271 84.4046 114.814 84.051 114.47 83.5822C114.132 83.1156 113.933 82.5872 113.874 81.9968C113.815 81.4064 113.912 80.8095 114.164 80.2061ZM115.31 80.6851C115.167 81.0283 115.115 81.3707 115.154 81.7123C115.199 82.0562 115.33 82.3647 115.548 82.6377C115.763 82.9162 116.05 83.1307 116.41 83.2811C116.77 83.4315 117.125 83.4854 117.474 83.4429C117.821 83.4059 118.13 83.2814 118.401 83.0694C118.677 82.8597 118.887 82.5832 119.03 82.24C119.174 81.8968 119.223 81.5532 119.178 81.2093C119.139 80.8677 119.012 80.5577 118.797 80.2791C118.579 80.0061 118.29 79.7944 117.93 79.644C117.571 79.4936 117.217 79.4369 116.87 79.4739C116.521 79.5164 116.208 79.6426 115.932 79.8522C115.661 80.0643 115.454 80.3419 115.31 80.6851Z" fill="white"/>
</g>
<defs>
<filter id="filter0_d" x="22.7002" y="18.7402" width="86.5" height="89.9867" filterUnits="userSpaceOnUse" color-interpolation-filters="sRGB">
<feFlood flood-opacity="0" result="BackgroundImageFix"/>
<feColorMatrix in="SourceAlpha" type="matrix" values="0 0 0 0 0 0 0 0 0 0 0 0 0 0 0 0 0 0 127 0" result="hardAlpha"/>
<feOffset/>
<feGaussianBlur stdDeviation="15"/>
<feColorMatrix type="matrix" values="0 0 0 0 0 0 0 0 0 0 0 0 0 0 0 0 0 0 1 0"/>
<feBlend mode="normal" in2="BackgroundImageFix" result="effect1_dropShadow"/>
<feBlend mode="normal" in="SourceGraphic" in2="effect1_dropShadow" result="shape"/>
</filter>
<clipPath id="clip0">
<rect width="126" height="122" fill="white"/>
</clipPath>
</defs>
</svg>
