<svg width="54" height="28" viewBox="0 0 54 28" fill="none" xmlns="http://www.w3.org/2000/svg">
<circle cx="26" cy="14" r="9" stroke="white" stroke-opacity="0.15" stroke-width="10"/>
<path d="M0.5 23.0959V5.38388H6.212C8.132 5.38388 9.564 5.79188 10.508 6.60788C11.452 7.40788 11.924 8.56788 11.924 10.0879V10.4239C11.924 11.3359 11.748 12.0879 11.396 12.6799C11.044 13.2559 10.556 13.7039 9.932 14.0239C10.764 14.3119 11.42 14.7759 11.9 15.4159C12.396 16.0399 12.644 16.8879 12.644 17.9599V18.2959C12.644 19.8319 12.172 21.0159 11.228 21.8479C10.284 22.6799 8.852 23.0959 6.932 23.0959H0.5ZM6.62 7.44788H2.852V13.1839H6.62C7.612 13.1839 8.34 12.9199 8.804 12.3919C9.284 11.8479 9.524 11.1599 9.524 10.3279C9.524 9.47988 9.284 8.79188 8.804 8.26388C8.34 7.71988 7.612 7.44788 6.62 7.44788ZM7.268 15.1519H2.852V21.0319H7.268C8.212 21.0319 8.94 20.7679 9.452 20.2399C9.98 19.6959 10.244 18.9759 10.244 18.0799C10.244 17.1679 9.988 16.4559 9.476 15.9439C8.964 15.4159 8.228 15.1519 7.268 15.1519Z" fill="white"/>
<path d="M46.0905 23.8158C44.6345 23.8158 43.3945 23.5758 42.3705 23.0958C41.3465 22.6158 40.5625 21.9518 40.0185 21.1038C39.4745 20.2558 39.2025 19.2958 39.2025 18.2238H41.5545C41.5545 18.7518 41.6905 19.2798 41.9625 19.8078C42.2505 20.3358 42.7225 20.7758 43.3785 21.1278C44.0505 21.4798 44.9545 21.6558 46.0905 21.6558C47.1465 21.6558 48.0105 21.5038 48.6825 21.1998C49.3545 20.8798 49.8505 20.4718 50.1705 19.9758C50.4905 19.4638 50.6505 18.9118 50.6505 18.3198C50.6505 17.5998 50.3385 17.0078 49.7145 16.5438C49.0905 16.0638 48.1785 15.7678 46.9785 15.6558L45.0345 15.4878C43.4825 15.3598 42.2425 14.8798 41.3145 14.0478C40.3865 13.2158 39.9225 12.1198 39.9225 10.7598C39.9225 9.68779 40.1785 8.75179 40.6905 7.95179C41.2185 7.15179 41.9465 6.52779 42.8745 6.07979C43.8025 5.61579 44.8825 5.38379 46.1145 5.38379C47.3305 5.38379 48.4025 5.60779 49.3305 6.05579C50.2585 6.50379 50.9785 7.13579 51.4905 7.95179C52.0185 8.75179 52.2825 9.71179 52.2825 10.8318H49.9305C49.9305 10.2718 49.7945 9.74379 49.5225 9.24779C49.2665 8.75179 48.8585 8.34379 48.2985 8.02379C47.7385 7.70379 47.0105 7.54379 46.1145 7.54379C45.2505 7.54379 44.5305 7.69579 43.9545 7.99979C43.3945 8.30379 42.9705 8.70379 42.6825 9.19979C42.4105 9.67979 42.2745 10.1998 42.2745 10.7598C42.2745 11.3998 42.5225 11.9678 43.0185 12.4638C43.5145 12.9598 44.2505 13.2478 45.2265 13.3278L47.1705 13.4958C48.9625 13.6558 50.3785 14.1518 51.4185 14.9838C52.4745 15.7998 53.0025 16.9118 53.0025 18.3198C53.0025 19.3918 52.7145 20.3438 52.1385 21.1758C51.5625 22.0078 50.7545 22.6558 49.7145 23.1198C48.6745 23.5838 47.4665 23.8158 46.0905 23.8158Z" fill="white"/>
<circle opacity="0.6" cx="26" cy="14" r="8" stroke="white" stroke-width="2"/>
</svg>
