<svg width="30" height="30" viewBox="0 0 30 30" fill="none" xmlns="http://www.w3.org/2000/svg"><g opacity=".3" clip-path="url(#clip0)"><path fill-rule="evenodd" clip-rule="evenodd" d="M15.9656 1.91063C15.6443 1.8869 15.3222 1.87502 15 1.875V0C15.3685 179677e-9 15.7369.013939 16.1044.04125L15.9656 1.91063zM19.7231 2.75437C19.1221 2.52245 18.5048 2.33506 17.8763 2.19375L18.2869.36375C19.005.525 19.7119.73875 20.3981 1.005L19.7231 2.75437v0zM22.2919 4.08562C22.0238 3.90684 21.7492 3.73798 21.4687 3.57938L22.3931 1.94813C23.0342 2.31138 23.6477 2.72123 24.2287 3.17437L23.0756 4.65375C22.8214 4.45543 22.56 4.26655 22.2919 4.0875V4.08562zM25.7306 7.44188C25.3597 6.91495 24.9505 6.4161 24.5062 5.94938L25.8637 4.65563C26.37 5.19 26.8388 5.76187 27.2644 6.36187L25.7306 7.44188v0zM27.1256 9.97688C27.0026 9.67961 26.8687 9.38692 26.7244 9.09938L28.3987 8.25562C28.7299 8.91391 29.0119 9.59577 29.2425 10.2956L27.4612 10.8825C27.3605 10.5766 27.2485 10.2745 27.1256 9.97688v0zM28.1194 14.6775C28.1042 14.0331 28.0415 13.3908 27.9319 12.7556L29.7787 12.4369C29.9044 13.1606 29.9775 13.8956 29.9963 14.6306L28.1213 14.6775H28.1194zM27.8738 17.5613C27.9356 17.2425 27.9862 16.9256 28.0256 16.605L29.8875 16.8356C29.7974 17.5672 29.6533 18.291 29.4563 19.0012L27.6488 18.5006C27.735 18.1912 27.81 17.8781 27.8738 17.5613v0zM26.0887 22.0219C26.4337 21.4781 26.7375 20.9081 27 20.3194L28.7138 21.0787C28.4138 21.7537 28.0669 22.4025 27.6731 23.025L26.0887 22.0219zM24.2812 24.2812C24.51 24.0525 24.7294 23.8162 24.9375 23.5725L26.3587 24.7969C26.1181 25.0759 25.8673 25.3461 25.6069 25.6069L24.2812 24.2812v0z" fill="#fff"/><path fill-rule="evenodd" clip-rule="evenodd" d="M14.9995 1.875C12.8412 1.87516 10.7162 2.40759 8.81272 3.42514 6.90928 4.44268 5.28616 5.91394 4.08712 7.70859 2.88808 9.50325 2.15012 11.5659 1.93862 13.7139 1.72712 15.8618 2.0486 18.0288 2.87459 20.0228 3.70058 22.0169 5.00558 23.7765 6.674 25.1457 8.34242 26.515 10.3228 27.4516 12.4396 27.8728 14.5565 28.2939 16.7446 28.1864 18.81 27.56 20.8754 26.9335 22.7545 25.8074 24.2808 24.2812L25.6064 25.6069C23.8621 27.3521 21.7144 28.6401 19.3533 29.3569 16.9923 30.0736 14.491 30.1969 12.0709 29.7159 9.65081 29.2349 7.38674 28.1643 5.47929 26.5992 3.57184 25.034 2.07989 23.0225 1.13564 20.7429.191385 18.4633-.176016 15.986.0659859 13.5305.307988 11.075 1.15192 8.71706 2.52301 6.66566 3.8941 4.61426 5.75001 2.93271 7.92631 1.77001 10.1026.607303 12.5321-653873e-9 14.9995 527734e-12V1.875z" fill="#fff"/><path fill-rule="evenodd" clip-rule="evenodd" d="M14.0625 5.625C14.3111 5.625 14.5496 5.72377 14.7254 5.89959 14.9012 6.0754 15 6.31386 15 6.5625V16.3313L21.09 19.8113C21.2996 19.9377 21.4514 20.1411 21.5131 20.378 21.5747 20.615 21.5412 20.8666 21.4197 21.0791 21.2983 21.2917 21.0985 21.4483 20.8631 21.5155 20.6277 21.5827 20.3754 21.5551 20.16 21.4388l-6.5625-3.75C13.454 17.6068 13.3347 17.4884 13.2518 17.3455 13.1688 17.2025 13.1251 17.0402 13.125 16.875V6.5625C13.125 6.31386 13.2238 6.0754 13.3996 5.89959 13.5754 5.72377 13.8139 5.625 14.0625 5.625v0z" fill="#fff"/></g><defs><clipPath id="clip0"><path d="M0 0h30v30H0z" fill="#fff"/></clipPath></defs></svg>