<svg width="31" height="45" viewBox="0 0 31 45" fill="none" xmlns="http://www.w3.org/2000/svg"><path d="M29.6636 16.5707C29.5878 16.4925 26.6589 14.7548 26.6589 14.7548L26.8273 14.3702C27.0886 13.7728 26.8584 13.0922 26.2794 12.752 25.7065 12.4156 24.9659 12.5176 24.5185 12.9951L24.2379 13.2946 20.1742 10.8437C19.832 10.648 19.7018 10.2698 19.6982 9.89458 19.4148 8.47111 18.1556 7.43795 16.7044 7.43795H16.1334V5.6608C17.452 5.35494 18.3835 4.16772 18.3425 2.78151 18.298 1.28359 17.0907.0628736 15.5938.00231696 14.4795-.0425952 13.4312.568596 12.9226 1.55983 12.7568 1.88309 12.8843 2.27965 13.2075 2.4455 13.5307 2.61135 13.9273 2.48382 14.0932 2.16056 14.3687 1.62364 14.9353 1.2929 15.5407 1.3169 16.3503 1.34959 17.0033 2.01 17.0273 2.82035 17.0513 3.62816 16.4663 4.31107 15.6668 4.40889 15.1828 4.46795 14.8177 4.87779 14.8177 5.36215V7.43778H14.3167C12.8933 7.43778 11.6392 8.44703 11.3348 9.83789 11.2455 10.3303 10.949 10.7708 10.5187 11.0286L6.76217 13.2945 6.48145 12.9948C6.03418 12.5174 5.29343 12.4151 4.72048 12.7518 4.14172 13.0919 3.91135 13.7724 4.17274 14.3698L4.34105 14.7546 1.41385 16.52C.815759 16.8807.444244 17.5388.444244 18.2373.444244 18.6007.738766 18.8952 1.10211 18.8952 1.46545 18.8952 1.75997 18.6007 1.75997 18.2373 1.75997 18.0202 1.865 17.8152 2.03691 17.686H5.62329L7.52181 22.0265C8.00882 23.1398 8.58503 24.2334 9.23454 25.2769L9.78658 26.1638C6.27526 29.9736 3.70437 34.6234 2.3462 39.6237L1.29204 43.5053C1.19465 43.8642 1.26831 44.2395 1.49419 44.535 1.72006 44.8304 2.06293 44.9999 2.43479 44.9999H6.42863C6.79197 44.9999 7.08649 44.7053 7.08649 44.342 7.08649 43.9787 6.79197 43.6841 6.42863 43.6841H2.60688L3.61595 39.9686C4.9344 35.1144 7.44456 30.604 10.8749 26.9252 11.2052 26.5711 11.2572 26.0367 11.0013 25.6257L10.3515 24.5817C9.73543 23.5918 9.18892 22.5547 8.72723 21.4992L5.39539 13.8819C5.44144 13.8605 5.50191 13.8737 5.52142 13.8945L10.043 18.7208C11.4078 20.1775 13.3968 21.0129 15.5 21.0129 17.6032 21.0129 19.5923 20.1775 20.957 18.7208L25.4787 13.8948C25.4982 13.8738 25.559 13.8607 25.6047 13.8822L22.2728 21.4996C21.8112 22.5549 21.2647 23.592 20.6485 24.582L19.9988 25.626C19.7441 26.0351 19.7944 26.5663 20.1205 26.9204 20.1223 26.9223 20.1239 26.9242 20.1257 26.9261 21.266 28.1489 22.3149 29.4742 23.2433 30.8651 23.445 31.1673 23.8534 31.2486 24.1556 31.047 24.4578 30.8453 24.5393 30.4368 24.3376 30.1347 23.404 28.7361 22.3535 27.4011 21.2134 26.1642L21.7655 25.2771C22.4151 24.2334 22.9913 23.1399 23.4781 22.0267L25.3767 17.6863H28.9631C29.1351 17.8155 29.2401 18.0205 29.2401 18.2376 29.2401 18.6009 29.5346 18.8955 29.898 18.8955 30.2613 18.8955 30.5558 18.6009 30.5558 18.2376 30.5557 17.5701 30.2158 16.9402 29.6636 16.5707zM4.20957 16.3706 4.87279 15.9706 5.04778 16.3706H4.20957zm6.98863-4.2149C11.9128 11.7246 12.4251 11.0099 12.6037 10.1941L12.62 10.1191C12.7932 9.32813 13.5067 8.75385 14.3166 8.75385H16.7043C17.5119 8.75385 18.215 9.31626 18.3963 10.0988 18.4221 10.8624 18.8379 11.5743 19.4945 11.9705L23.318 14.2765 21.3552 16.3715C21.3492 16.3713 21.3433 16.3706 21.3373 16.3706H9.64393L7.68186 14.2765 11.1982 12.1557zM15.5 19.6972C13.7592 19.6972 12.1202 19.0134 11.0031 17.8212L10.8767 17.6863h9.2466L19.9969 17.8212C18.8798 19.0134 17.2408 19.6972 15.5 19.6972zM26.1272 15.9706 26.7903 16.3706H25.9522L26.1272 15.9706z" fill="#fff"/><path d="M28.6536 39.6244C28.0008 37.2206 27.0686 34.8908 25.883 32.6999 25.71 32.3803 25.311 32.2614 24.9914 32.4345 24.6718 32.6074 24.553 33.0065 24.7259 33.3261 25.8633 35.428 26.7576 37.6631 27.3839 39.9692L28.3931 43.6846H9.59731C9.23397 43.6846 8.93945 43.9792 8.93945 44.3425 8.93945 44.7058 9.23397 45.0004 9.59731 45.0004H28.5651C28.937 45.0004 29.2798 44.8309 29.5057 44.5355 29.7316 44.2401 29.8052 43.8647 29.7078 43.5058L28.6536 39.6244z" fill="#fff"/></svg>