<svg width="45" height="45" viewBox="0 0 45 45" fill="none" xmlns="http://www.w3.org/2000/svg"><path opacity=".3" d="M21.7433.0C24.3901.0 26.8759.498442 29.2007 1.49533 31.5256 2.49221 33.5822 3.91633 35.3705 5.76769 37.1589 7.58344 38.5538 9.73743 39.5553 12.2296 40.5925 14.6862 41.1111 17.3921 41.1111 20.3471 41.1111 20.9524 41.0575 21.7891 40.9502 22.8571 40.8786 23.8896 40.6998 24.9933 40.4137 26.1682 40.1275 27.3075 39.6983 28.4112 39.126 29.4793 38.5895 30.5118 37.8384 31.3663 36.8727 32.0427 35.9428 32.7192 34.7804 33.0574 33.3855 33.0574 32.2052 33.0574 31.311 32.826 30.7029 32.3632 30.1307 31.9003 29.7372 31.2773 29.5226 30.494 29.308 29.7107 29.1471 28.8741 29.0398 27.984 28.0741 29.0165 26.7865 29.9065 25.177 30.6542 23.6032 31.4019 21.8864 31.7757 20.0265 31.7757 17.5586 31.7757 15.6093 31.117 14.1786 29.7997 12.748 28.4824 12.0326 26.8091 12.0326 24.7797 12.0326 22.9996 12.5334 21.611 13.5348 20.6142 14.5363 19.5817 15.7881 18.8518 17.2904 18.4246 18.7926 17.9973 20.3305 17.7837 21.9043 17.7837 23.478 17.7837 24.8908 17.9439 26.1427 18.2644 27.3945 18.5492 28.3066 18.7984 28.8788 19.012 28.8788 17.2319 28.6821 15.6653 28.2887 14.3124 27.8952 12.9239 27.1978 11.838 26.1963 11.0547 25.2306 10.2715 23.8536 9.87984 22.0652 9.87984 20.7061 9.87984 19.3648 10.1113 18.0415 10.5741 16.7538 11.0369 15.5735 11.66 14.5005 12.4433L13.6421 10.7877C14.894 9.93325 16.2352 9.25679 17.6659 8.75835 19.1323 8.2599 20.6703 8.01068 22.2798 8.01068 24.1755 8.01068 25.6956 8.33111 26.8401 8.97196 27.9847 9.61282 28.8252 10.4673 29.3617 11.5354 29.934 12.5679 30.3095 13.725 30.4883 15.0067 30.7029 16.2884 30.8102 17.5879 30.8102 18.9052V26.275C30.8102 27.8416 30.9712 29.0877 31.2931 30.0134 31.615 30.939 32.384 31.4019 33.6001 31.4019 34.7446 31.4019 35.6924 31.028 36.4435 30.2804 37.2304 29.5327 37.8384 28.5714 38.2676 27.3965 38.7326 26.2216 39.0545 24.9933 39.2334 23.7116 39.4122 22.4299 39.5016 21.2906 39.5016 20.2937 39.5016 17.6591 39.0366 15.2203 38.1067 12.9773 37.2125 10.6987 35.9428 8.70494 34.2975 6.99599 32.688 5.28705 30.8102 3.95193 28.6642 2.99065 26.5182 2.02937 24.1934 1.54873 21.6897 1.54873 19.2575 1.54873 16.9506 2.01157 14.7688 2.93725 12.6228 3.82733 10.7092 5.09123 9.0282 6.72897 7.34715 8.36671 6.02378 10.3071 5.05807 12.5501 4.09236 14.7931 3.60951 17.2497 3.60951 19.9199 3.60951 22.4833 4.0566 24.8865 4.95077 27.1295 5.88071 29.3725 7.15043 31.3307 8.75995 33.004 10.4052 34.713 12.3009 36.0481 14.4469 37.0093 16.6287 37.9706 18.9714 38.4513 21.4751 38.4513 22.9415 38.4513 24.3543 38.2733 25.7135 37.9172 27.0726 37.5968 28.396 37.0984 29.6836 36.4219L30.3274 37.8638C28.8967 38.5759 27.4303 39.1099 25.9281 39.466 24.4616 39.822 22.9773 40 21.4751 40 18.7926 40 16.271 39.4838 13.9104 38.4513 11.5855 37.4544 9.52893 36.0481 7.74059 34.2323 5.95224 32.4166 4.53945 30.2982 3.50221 27.8772 2.50074 25.4206 2 22.7681 2 19.9199 2 16.9292 2.5365 14.2234 3.60951 11.8024 4.68252 9.34579 6.14896 7.24522 8.00884 5.50067 9.86872 3.72052 11.979 2.3676 14.3396 1.44192 16.7002.48064 19.1681.0 21.7433.0zM25.177 28.785C26.7865 28.0374 27.7879 27.1473 28.1814 26.1148 28.6106 25.0467 28.8252 23.9964 28.8252 22.964V20.721C28.396 20.6854 27.5555 20.4717 26.3036 20.0801 25.0875 19.6885 23.5674 19.4927 21.7433 19.4927 20.42 19.4927 19.1681 19.6529 17.9878 19.9733 16.8075 20.2581 15.8418 20.7922 15.0907 21.5754 14.3754 22.3231 14.0177 23.3556 14.0177 24.6729 14.0177 26.3106 14.6078 27.6101 15.7881 28.5714 16.9685 29.4971 18.417 29.9599 20.1338 29.9599 21.028 29.9599 21.9222 29.8531 22.8163 29.6395 23.7463 29.3903 24.5332 29.1055 25.177 28.785z" fill="#fff"/></svg>