<svg width="45" height="45" viewBox="0 0 45 45" fill="none" xmlns="http://www.w3.org/2000/svg"><g opacity=".3" clip-path="url(#clip0)"><path d="M44.8476 21.3499 37.7908 10.9852C36.3151 8.81783 34.1245 7.19212 31.6226 6.40751 29.1205 5.62309 26.3939 5.70676 23.9448 6.64359L17.5013 9.10814C17.0479 9.28155 16.821 9.78956 16.9943 10.2429 17.1677 10.6962 17.6758 10.9229 18.1292 10.7499L24.5727 8.2853C28.8954 6.63225 33.7333 8.14907 36.3379 11.9745L40.6722 18.3405 32.8939 12.8621C31.2637 11.7139 29.1636 11.4126 27.2762 12.0564L3.87229 20.038C3.05772 20.3163 2.16229 19.8813 1.87664 19.0693 1.51102 18.0299 2.03071 16.9073 3.05983 16.5137l8.05297-3.0801C11.5662 13.2602 11.793 12.7522 11.6197 12.2988 11.4462 11.8454 10.938 11.6187 10.4849 11.7919L2.43185 14.8721C.506773 15.6084-.46539 17.7082.218402 19.6525.822565 21.3702 2.71609 22.2896 4.43963 21.7016L27.8437 13.72C29.2003 13.2573 30.7099 13.4739 31.8819 14.2992L43.6153 22.5631C43.768 22.6707 43.945 22.7234 44.1211 22.7234 44.3454 22.7234 44.5683 22.6378 44.7378 22.4709 45.0403 22.1729 45.0867 21.701 44.8476 21.3499z" fill="#fff"/><path d="M15.1469 10.5661C14.9834 10.4018 14.7566 10.3086 14.5256 10.3086 14.2944 10.3086 14.0676 10.4018 13.9042 10.5661 13.7408 10.7296 13.6467 10.9556 13.6467 11.1874 13.6467 11.4186 13.7408 11.6453 13.9042 11.8087 14.0677 11.9722 14.2945 12.0662 14.5256 12.0662 14.7567 12.0662 14.9835 11.9722 15.1469 11.8087 15.3103 11.6452 15.4044 11.4185 15.4044 11.1874 15.4044 10.9554 15.3103 10.7296 15.1469 10.5661z" fill="#fff"/><path d="M37.921 29.7688 37.8877 29.7586C36.8297 29.4302 35.919 28.7724 35.2768 27.8838 35.9363 27.3524 36.5721 26.7839 37.1794 26.1766 37.5226 25.8334 37.5226 25.2769 37.1794 24.9336 36.8363 24.5905 36.2797 24.5905 35.9365 24.9336 32.4898 28.3804 28.0872 30.5237 23.3264 31.1169 23.2945 31.1191 23.2631 31.1228 23.2321 31.1283 22.366 31.2324 21.4883 31.2858 20.6024 31.2858 20.6019 31.2858 20.6015 31.2858 20.6009 31.2858 20.6004 31.2858 20.6001 31.2858 20.5995 31.2858 19.7136 31.2858 18.8359 31.2324 17.9697 31.1283 17.9387 31.1227 17.9074 31.119 17.8754 31.1169 13.1147 30.5237 8.71203 28.3804 5.26529 24.9336 4.92208 24.5906 4.36564 24.5905 4.02243 24.9336 3.67921 25.2768 3.67921 25.8333 4.02243 26.1766 4.62975 26.7839 5.26556 27.3525 5.925 27.8838 5.28287 28.7724 4.37241 29.4303 3.31526 29.7582L3.2808 29.7688C2.817 29.9121 2.5572 30.4041 2.70046 30.8679 2.817 31.2453 3.16461 31.4876 3.53982 31.4876 3.62578 31.4876 3.71314 31.4749 3.79945 31.4483L3.83504 31.4373C5.25079 30.9979 6.47019 30.12 7.33363 28.9344 7.63422 29.1416 7.93894 29.3414 8.24787 29.5336 7.8187 30.8803 6.8142 31.9685 5.48186 32.4971L5.20975 32.6049C4.75851 32.7839 4.53791 33.2947 4.71677 33.7458 4.85352 34.0908 5.18417 34.3008 5.53389 34.3008 5.64173 34.3008 5.75133 34.2808 5.85768 34.2387L6.13005 34.1307C7.83962 33.4524 9.15719 32.1027 9.80117 30.4188 10.1388 30.5944 10.4802 30.7615 10.8255 30.92 10.7248 32.4271 9.85347 33.7724 8.50074 34.4781L8.44835 34.5055C8.01795 34.7298 7.85096 35.2606 8.07526 35.691 8.23197 35.9917 8.53818 36.1638 8.8552 36.1638 8.99205 36.1638 9.131 36.1317 9.26073 36.064L9.31338 36.0366C11.0392 35.1362 12.2066 33.4949 12.5125 31.6156 12.8853 31.7523 13.2614 31.8797 13.6412 31.9972 13.5909 33.3913 13.0504 34.7162 12.1041 35.7486 11.7761 36.1064 11.8003 36.6622 12.1581 36.9903 12.3269 37.145 12.5396 37.2213 12.7517 37.2213 12.9895 37.2213 13.2265 37.1253 13.3998 36.9363 14.5387 35.6937 15.2258 34.1252 15.3732 32.4612 15.8783 32.5756 16.3885 32.6726 16.9028 32.7535 16.7889 34.1036 16.3746 35.4165 15.6854 36.5895L15.5671 36.7909C15.3213 37.2094 15.4613 37.7479 15.8798 37.9938 16.0196 38.0759 16.1728 38.115 16.3242 38.115 16.6256 38.115 16.919 37.9597 17.0828 37.681L17.201 37.4799C18.0133 36.0975 18.5058 34.5522 18.6491 32.9621 19.0052 32.9913 19.3629 33.0123 19.722 33.0255V38.2469C19.722 38.7322 20.1155 39.1257 20.6009 39.1257 21.0862 39.1257 21.4797 38.7321 21.4797 38.2469V33.0255C21.8389 33.0123 22.1965 32.9913 22.5527 32.9621 22.6959 34.552 23.1884 36.0975 24.0007 37.4797L24.119 37.681C24.2827 37.9598 24.5762 38.115 24.8775 38.115 25.0288 38.115 25.1821 38.0759 25.3219 37.9938 25.7405 37.7479 25.8804 37.2094 25.6346 36.7909L25.5163 36.5894C24.8271 35.4165 24.4128 34.1034 24.2989 32.7535 24.8132 32.6725 25.3234 32.5756 25.8285 32.4612 25.9758 34.1251 26.6631 35.6937 27.8019 36.9363 27.9753 37.1253 28.2122 37.2213 28.4501 37.2213 28.6622 37.2213 28.8749 37.1449 29.0436 36.9903 29.4014 36.6623 29.4256 36.1064 29.0976 35.7486 28.1514 34.7162 27.6108 33.3911 27.5605 31.9972 27.9403 31.8797 28.3165 31.7524 28.6892 31.6156 28.9952 33.495 30.1626 35.1363 31.8886 36.0367L31.941 36.064C32.0708 36.1317 32.2097 36.1638 32.3465 36.1638 32.6636 36.1638 32.9698 35.9916 33.1265 35.691 33.3509 35.2606 33.1839 34.7298 32.7534 34.5055L32.7013 34.4782C31.3483 33.7724 30.4769 32.4271 30.3762 30.92 30.7216 30.7615 31.0631 30.5944 31.4006 30.4188 32.0444 32.1027 33.362 33.4524 35.0718 34.1308L35.344 34.2388C35.4504 34.2809 35.56 34.3009 35.6678 34.3009 36.0176 34.3009 36.3482 34.0906 36.485 33.7459 36.6639 33.2947 36.4432 32.7839 35.992 32.605L35.7199 32.4971C34.3874 31.9684 33.3828 30.8802 32.9538 29.5336 33.2627 29.3413 33.5674 29.1415 33.868 28.9343 34.7314 30.12 35.9509 30.9979 37.3677 31.4375L37.4022 31.4482C37.4886 31.4749 37.5759 31.4875 37.6618 31.4875 38.0371 31.4875 38.3846 31.2451 38.5012 30.8678 38.6446 30.4041 38.3849 29.9121 37.921 29.7688z" fill="#fff"/></g><defs><clipPath id="clip0"><path d="M0 0h45v45H0z" fill="#fff"/></clipPath></defs></svg>