<svg width="20" height="27" viewBox="0 0 20 27" fill="none" xmlns="http://www.w3.org/2000/svg">
<g opacity="0.5" clip-path="url(#clip0)">
<path d="M17.5 12.3333C17.5 18.1666 10 23.1666 10 23.1666C10 23.1666 2.5 18.1666 2.5 12.3333C2.5 10.3441 3.29018 8.43647 4.6967 7.02995C6.10322 5.62343 8.01088 4.83325 10 4.83325C11.9891 4.83325 13.8968 5.62343 15.3033 7.02995C16.7098 8.43647 17.5 10.3441 17.5 12.3333Z" stroke="white" stroke-width="2" stroke-linecap="round" stroke-linejoin="round"/>
<path d="M10 14.8333C11.3807 14.8333 12.5 13.714 12.5 12.3333C12.5 10.9525 11.3807 9.83325 10 9.83325C8.61929 9.83325 7.5 10.9525 7.5 12.3333C7.5 13.714 8.61929 14.8333 10 14.8333Z" stroke="white" stroke-width="2" stroke-linecap="round" stroke-linejoin="round"/>
</g>
<defs>
<clipPath id="clip0">
<rect width="20" height="20" fill="white" transform="translate(0 4)"/>
</clipPath>
</defs>
</svg>
