<svg width="20" height="21" viewBox="0 0 20 21" fill="none" xmlns="http://www.w3.org/2000/svg">
<g opacity="0.5">
<path d="M18.3333 14.5999V17.0999C18.3343 17.332 18.2867 17.5617 18.1937 17.7744C18.1008 17.987 17.9644 18.1779 17.7934 18.3348C17.6224 18.4917 17.4205 18.6112 17.2006 18.6855C16.9808 18.7599 16.7478 18.7875 16.5167 18.7666C13.9523 18.488 11.4892 17.6117 9.32498 16.2083C7.31151 14.9288 5.60443 13.2217 4.32499 11.2083C2.91663 9.03425 2.04019 6.55908 1.76665 3.98325C1.74583 3.75281 1.77321 3.52055 1.84707 3.30127C1.92092 3.08199 2.03963 2.88049 2.19562 2.7096C2.35162 2.53871 2.54149 2.40218 2.75314 2.30869C2.9648 2.2152 3.1936 2.1668 3.42499 2.16658H5.92499C6.32941 2.1626 6.72148 2.30582 7.02812 2.56953C7.33476 2.83324 7.53505 3.19946 7.59165 3.59992C7.69717 4.39997 7.89286 5.18552 8.17499 5.94158C8.2871 6.23985 8.31137 6.56401 8.24491 6.87565C8.17844 7.18729 8.02404 7.47334 7.79998 7.69992L6.74165 8.75825C7.92795 10.8445 9.65536 12.572 11.7417 13.7583L12.8 12.6999C13.0266 12.4759 13.3126 12.3215 13.6243 12.255C13.9359 12.1885 14.26 12.2128 14.5583 12.3249C15.3144 12.607 16.0999 12.8027 16.9 12.9083C17.3048 12.9654 17.6745 13.1693 17.9388 13.4812C18.203 13.7931 18.3435 14.1912 18.3333 14.5999Z" stroke="white" stroke-width="2" stroke-linecap="round" stroke-linejoin="round"/>
</g>
</svg>
