<svg width="45" height="45" viewBox="0 0 45 45" fill="none" xmlns="http://www.w3.org/2000/svg"><g opacity=".3"><path d="M22.5.0C14.4689.0 7.93512 6.53382 7.93512 14.5649 7.93512 21.7469 12.9168 31.1609 17.0959 37.7934 17.3654 38.2214 17.9307 38.3497 18.3589 38.08 18.7867 37.8105 18.915 37.245 18.6453 36.8172 11.307 25.1702 9.76676 18.2877 9.76676 14.5649 9.76676 7.54373 15.4788 1.83148 22.5001 1.83148 29.5214 1.83148 35.2335 7.54357 35.2335 14.5649 35.2335 25.9671 21.9101 43.3503 21.7755 43.5244 21.4664 43.9248 21.5401 44.4999 21.9405 44.8089 22.1071 44.9377 22.3042 45 22.4997 45 22.7735 45 23.0445 44.8776 23.225 44.6441 23.7901 43.9127 37.0652 26.5922 37.0652 14.5647 37.0649 6.53382 30.5312.0 22.5.0z" fill="#fff"/><path d="M22.5 9.92035C23.0056 9.92035 23.4157 9.51025 23.4157 9.00461 23.4157 8.49897 23.0056 8.08887 22.5 8.08887 18.9292 8.08887 16.0242 10.9939 16.0242 14.5647 16.0242 18.1355 18.9292 21.0405 22.5 21.0405 26.0708 21.0405 28.9758 18.1355 28.9758 14.5647 28.9758 13.1386 28.5211 11.7857 27.6606 10.6522 27.3549 10.2494 26.7805 10.1708 26.3775 10.4765 25.9748 10.7822 25.896 11.3567 26.2019 11.7596 26.8185 12.5717 27.1443 13.5418 27.1443 14.5647 27.1443 17.1256 25.0609 19.209 22.5 19.209 19.9391 19.209 17.8557 17.1256 17.8557 14.5647 17.8557 12.0038 19.9393 9.92035 22.5 9.92035z" fill="#fff"/></g></svg>