<svg width="20" height="21" viewBox="0 0 20 21" fill="none" xmlns="http://www.w3.org/2000/svg"><g opacity=".5"><path d="M18.3351 14.6V17.1C18.3361 17.3321 18.2886 17.5618 18.1956 17.7744 18.1026 17.9871 17.9662 18.178 17.7952 18.3349 17.6242 18.4918 17.4223 18.6112 17.2024 18.6856 16.9826 18.7599 16.7496 18.7875 16.5185 18.7666 13.9542 18.488 11.491 17.6118 9.32682 16.2083 7.31334 14.9289 5.60626 13.2218 4.32682 11.2083 2.91846 9.03432 2.04202 6.55914 1.76848 3.98331 1.74766 3.75287 1.77505 3.52061 1.8489 3.30133 1.92275 3.08205 2.04146 2.88055 2.19745 2.70966 2.35345 2.53877 2.54332 2.40224 2.75498 2.30875 2.96663 2.21526 3.19543 2.16686 3.42682 2.16665h2.5C6.33124 2.16267 6.72331 2.30588 7.02995 2.56959 7.33659 2.8333 7.53688 3.19952 7.59348 3.59998 7.699 4.40003 7.89469 5.18558 8.17682 5.94165 8.28894 6.23992 8.3132 6.56407 8.24674 6.87571 8.18028 7.18735 8.02587 7.4734 7.80182 7.69998L6.74348 8.75831C7.92978 10.8446 9.65719 12.572 11.7435 13.7583L12.8018 12.7C13.0284 12.4759 13.3144 12.3215 13.6261 12.2551 13.9377 12.1886 14.2619 12.2129 14.5601 12.325 15.3162 12.6071 16.1018 12.8028 16.9018 12.9083 17.3066 12.9654 17.6763 13.1693 17.9406 13.4812 18.2049 13.7931 18.3453 14.1913 18.3351 14.6z" stroke="#fff" stroke-width="2" stroke-linecap="round" stroke-linejoin="round"/></g></svg>