<svg width="20" height="28" viewBox="0 0 20 28" fill="none" xmlns="http://www.w3.org/2000/svg">
<g opacity="0.5" clip-path="url(#clip0)">
<path d="M17.5 12.3333C17.5 18.1666 10 23.1666 10 23.1666C10 23.1666 2.5 18.1666 2.5 12.3333C2.5 10.3442 3.29018 8.43653 4.6967 7.03001C6.10322 5.62349 8.01088 4.83331 10 4.83331C11.9891 4.83331 13.8968 5.62349 15.3033 7.03001C16.7098 8.43653 17.5 10.3442 17.5 12.3333Z" stroke="white" stroke-width="2" stroke-linecap="round" stroke-linejoin="round"/>
<path d="M10 14.8333C11.3807 14.8333 12.5 13.714 12.5 12.3333C12.5 10.9526 11.3807 9.83331 10 9.83331C8.61929 9.83331 7.5 10.9526 7.5 12.3333C7.5 13.714 8.61929 14.8333 10 14.8333Z" stroke="white" stroke-width="2" stroke-linecap="round" stroke-linejoin="round"/>
</g>
<defs>
<clipPath id="clip0">
<rect width="20" height="20" fill="white" transform="translate(0 4)"/>
</clipPath>
</defs>
</svg>
