<svg width="45" height="45" viewBox="0 0 45 45" fill="none" xmlns="http://www.w3.org/2000/svg"><g opacity=".3"><path d="M13.1817 28.8192C13.782 29.4195 14.3976 29.9996 15.0274 30.5589 15.5871 31.0559 16.1581 31.5366 16.7396 32.0004 21.504 35.8009 26.9786 38.4754 32.7967 39.8181 35.9986 40.5573 39.2216 39.0027 40.6676 36.1114L41.5919 34.2623C42.4992 32.4484 41.8474 30.2093 40.1076 29.1653L34.2198 25.6331C32.3685 24.522 29.9711 25.1207 28.8608 26.9729L27.8379 28.6764C27.6395 29.0069 27.2357 29.143 26.8775 28.9995 20.7632 26.5542 15.4461 21.2373 13.001 15.1237 12.8576 14.7657 12.9937 14.362 13.3245 14.1636 15.6582 12.7622 14.8534 13.2453 15.0274 13.141 16.8792 12.0307 17.4792 9.63355 16.3677 7.78203L12.8353 1.89392C11.7913.1541 9.5525-.498066 7.73852.409534L5.88883 1.33392C2.97347 2.79176 1.44941 6.02848 2.18244 9.20477 3.87313 16.5318 7.67687 23.3144 13.1817 28.8192zM33.4156 26.9729 39.3034 30.505C40.3474 31.1315 40.7387 32.4749 40.1939 33.5635L39.7838 34.3844 29.8227 28.406 30.2006 27.7764C30.8668 26.6655 32.3045 26.306 33.4156 26.9729zM6.58769 2.73133 8.43738 1.80695C9.5348 1.25793 10.8742 1.6629 11.4953 2.69776L15.0277 8.58587C15.6942 9.69611 15.3356 11.1341 14.2233 11.8009L13.5928 12.1796 10.0554 6.28086C9.83357 5.91098 9.35383 5.79074 8.98365 6.01291 8.61377 6.23478 8.49353 6.71452 8.71539 7.0847L12.2637 13.0015C11.4611 13.6387 11.1596 14.7282 11.5502 15.7038 12.8188 18.8762 14.8653 21.9289 17.4688 24.532 20.072 27.1349 23.125 29.1814 26.297 30.4504 27.2739 30.841 28.3643 30.5389 29.0009 29.7353L39.069 35.7776C37.8572 37.8049 35.482 38.8336 33.148 38.2956 27.5356 37.0004 22.3043 34.393 17.8192 30.8385 17.2755 30.4077 16.7428 29.9629 16.2217 29.5048 15.5102 28.8794 14.8203 28.2292 14.1538 27.556 9.06859 22.4196 5.34048 15.9403 3.70498 8.85351 3.1349 6.38309 4.32052 3.86537 6.58769 2.73133z" fill="#fff"/></g></svg>