<svg width="80" height="80" viewBox="0 0 80 80" fill="none" xmlns="http://www.w3.org/2000/svg"><g ><path d="M71.1146 23.3621C70.9154 23.3622 70.72 23.3072 70.55 23.2033 70.38 23.0993 70.2421 22.9504 70.1514 22.7729 69.6833 21.8572 69.1438 20.9156 68.5006 19.894 68.4251 19.7738 68.374 19.6398 68.3502 19.4998 68.3264 19.3598 68.3305 19.2165 68.3621 19.0781 68.3937 18.9396 68.4523 18.8088 68.5345 18.693 68.6167 18.5772 68.7209 18.4787 68.8411 18.4032 68.9614 18.3277 69.0953 18.2766 69.2353 18.2528 69.3753 18.229 69.5186 18.2331 69.6571 18.2647 69.7955 18.2963 69.9264 18.3549 70.0422 18.4371 70.1579 18.5193 70.2564 18.6235 70.3319 18.7437 71.0087 19.8194 71.5795 20.8151 72.0768 21.7891 72.2071 22.0445 72.2306 22.3411 72.1422 22.6137 72.0538 22.8864 71.8607 23.1128 71.6055 23.2432 71.4538 23.3216 71.2854 23.3624 71.1146 23.3621v0z" fill="#fff"/><path d="M74.9407 39.6435H5.0596C4.77288 39.6435 4.4979 39.5296 4.29516 39.3268 4.09241 39.1241 3.97852 38.8491 3.97852 38.5624V38.184C3.97869 32.021 5.56008 25.9611 8.57143 20.5838 11.5828 15.2066 15.9234 10.6919 21.1781 7.47147 26.4328 4.25107 32.4259 2.43269 38.5841 2.19024 44.7424 1.9478 50.8599 3.28939 56.3515 6.08672 56.4822 6.14873 56.5991 6.23634 56.6953 6.34436 56.7915 6.45238 56.8651 6.57861 56.9117 6.71558 56.9582 6.85255 56.9768 6.99746 56.9663 7.14175 56.9558 7.28603 56.9165 7.42674 56.8507 7.55554 56.7848 7.68435 56.6938 7.79863 56.5829 7.89161 56.4721 7.98459 56.3438 8.05439 56.2055 8.09686 56.0672 8.13934 55.9218 8.15363 55.7779 8.13889 55.634 8.12415 55.4945 8.08067 55.3677 8.01104 50.2585 5.41102 44.5728 4.15051 38.8434 4.3476 33.1141 4.54469 27.5285 6.19292 22.61 9.13789 17.6915 12.0829 13.601 16.2282 10.7218 21.1855 7.84266 26.1428 6.26899 31.7498 6.14824 37.4813H73.852C73.8085 35.2075 73.5339 32.9439 73.0326 30.7256 72.9692 30.4459 73.0195 30.1525 73.1725 29.9099 73.3255 29.6674 73.5685 29.4955 73.8482 29.4321 74.1279 29.3688 74.4213 29.4191 74.6639 29.5721 74.9065 29.725 75.0784 29.9681 75.1418 30.2478 75.7287 32.8523 76.0239 35.5141 76.0218 38.184V38.5624C76.0218 38.8491 75.9079 39.1241 75.7051 39.3268 75.5024 39.5296 75.2274 39.6435 74.9407 39.6435v0z" fill="#fff"/><path d="M64.5619 14.4216C64.2786 14.421 64.0069 14.3092 63.8052 14.1103 63.0863 13.4011 62.323 12.7135 61.5403 12.0659 61.3192 11.8832 61.1798 11.62 61.1528 11.3345 61.1257 11.0489 61.2132 10.7643 61.396 10.5432 61.5788 10.3222 61.8419 10.1828 62.1274 10.1557 62.413 10.1286 62.6976 10.2161 62.9187 10.3989 63.7522 11.0865 64.5608 11.8173 65.3252 12.5708 65.4777 12.7212 65.5821 12.9136 65.6251 13.1235 65.6681 13.3334 65.6478 13.5514 65.5667 13.7497 65.4856 13.948 65.3474 14.1178 65.1697 14.2374 64.992 14.357 64.7827 14.4211 64.5684 14.4216H64.5619z" fill="#fff"/><path d="M55.0603 39.6464H24.9392C24.6525 39.6464 24.3775 39.5325 24.1748 39.3298 23.9721 39.1271 23.8582 38.8521 23.8582 38.5654V38.1827C23.8582 17.9848 30.949 2.16211 39.9998 2.16211 49.0506 2.16211 56.1414 17.9848 56.1414 38.1827V38.5654C56.1414 38.8521 56.0275 39.1271 55.8248 39.3298 55.622 39.5325 55.347 39.6464 55.0603 39.6464zM26.0236 37.4843H53.976C53.816 19.4378 47.4809 4.32427 39.9998 4.32427 32.5187 4.32427 26.1836 19.4378 26.0236 37.4843v0z" fill="#fff"/><path d="M33.5396 77.8376C31.5402 77.8354 29.6234 77.04 28.2097 75.6262 26.7961 74.2123 26.001 72.2954 25.999 70.296V69.2625C25.999 68.9758 26.1129 68.7008 26.3157 68.4981 26.5184 68.2953 26.7934 68.1814 27.0801 68.1814 27.3668 68.1814 27.6418 68.2953 27.8445 68.4981 28.0473 68.7008 28.1612 68.9758 28.1612 69.2625V70.296C28.1612 71.0023 28.3003 71.7017 28.5706 72.3542 28.8409 73.0068 29.237 73.5997 29.7365 74.0991 30.2359 74.5985 30.8288 74.9947 31.4814 75.265 32.1339 75.5353 32.8333 75.6744 33.5396 75.6744 34.2459 75.6744 34.9452 75.5353 35.5978 75.265 36.2503 74.9947 36.8432 74.5985 37.3427 74.0991 37.8421 73.5997 38.2383 73.0068 38.5085 72.3542 38.7788 71.7017 38.9179 71.0023 38.9179 70.296V38.5652C38.9179 38.2785 39.0318 38.0035 39.2346 37.8008 39.4373 37.598 39.7123 37.4841 39.999 37.4841 40.2858 37.4841 40.5607 37.598 40.7635 37.8008 40.9662 38.0035 41.0801 38.2785 41.0801 38.5652V70.296C41.0781 72.2954 40.2831 74.2123 38.8694 75.6262 37.4557 77.04 35.5389 77.8354 33.5396 77.8376v0z" fill="#fff"/><path d="M59.3654 70.6271C59.1263 70.6269 58.894 70.5475 58.7049 70.4012 58.2724 70.0693 48.1979 62.2098 48.1979 55.6293 48.1581 53.7271 48.874 51.8866 50.1888 50.5113 51.5035 49.136 53.3098 48.3379 55.2119 48.292 56.7165 48.2917 58.1783 48.7935 59.3654 49.7179 60.5526 48.7935 62.0143 48.2917 63.5189 48.292 65.421 48.3379 67.2273 49.136 68.5421 50.5113 69.8568 51.8866 70.5727 53.7271 70.533 55.6293 70.533 62.2109 60.4551 70.0693 60.026 70.4012 59.8368 70.5475 59.6045 70.6269 59.3654 70.6271zM55.2119 50.4542C53.8833 50.5002 52.627 51.0704 51.7178 52.0403 50.8085 53.0101 50.3204 54.3005 50.36 55.6293 50.36 59.8736 56.346 65.6758 59.3654 68.1612 62.386 65.6747 68.3708 59.8736 68.3708 55.6293 68.4105 54.3005 67.9223 53.0101 67.0131 52.0403 66.1038 51.0704 64.8475 50.5002 63.5189 50.4542 62.8865 50.457 62.2612 50.588 61.6809 50.8394 61.1006 51.0909 60.5773 51.4574 60.1427 51.9169 59.935 52.1201 59.656 52.2339 59.3654 52.2339 59.0748 52.2339 58.7958 52.1201 58.5881 51.9169 58.1536 51.4573 57.6303 51.0908 57.05 50.8394 56.4697 50.5879 55.8443 50.4569 55.2119 50.4542v0z" fill="#fff"/><path d="M20.1784 64.8648C19.9393 64.8654 19.7069 64.7863 19.5178 64.6399 19.1622 64.3653 10.8108 57.8507 10.8108 52.3502 10.7783 50.7363 11.3869 49.1753 12.5033 48.0093 13.6196 46.8433 15.1527 46.1674 16.7665 46.1296 17.9945 46.1296 19.1902 46.5228 20.1784 47.2518 21.1666 46.5228 22.3623 46.1296 23.5903 46.1296 25.2041 46.1674 26.7371 46.8433 27.8535 48.0093 28.9698 49.1753 29.5784 50.7363 29.5459 52.3502 29.5459 57.8507 21.1946 64.3653 20.8389 64.6399 20.6499 64.7863 20.4174 64.8654 20.1784 64.8648v0zM16.7665 48.2918C15.7261 48.3293 14.7429 48.7773 14.032 49.5379 13.321 50.2985 12.9403 51.3096 12.973 52.3502 12.973 55.7091 17.6843 60.3221 20.1784 62.3967 22.6724 60.3221 27.3838 55.7091 27.3838 52.3502 27.4165 51.3096 27.0357 50.2985 26.3248 49.5379 25.6139 48.7773 24.6307 48.3293 23.5903 48.2918 23.0966 48.2942 22.6085 48.3968 22.1556 48.5934 21.7027 48.79 21.2945 49.0765 20.9557 49.4356 20.7475 49.6378 20.4686 49.7509 20.1784 49.7509 19.8881 49.7509 19.6093 49.6378 19.4011 49.4356 19.0622 49.0765 18.654 48.79 18.2011 48.5934 17.7483 48.3968 17.2602 48.2942 16.7665 48.2918v0z" fill="#fff"/></g></svg>