<svg width="80" height="80" viewBox="0 0 80 80" fill="none" xmlns="http://www.w3.org/2000/svg">
<g opacity="0.8">
<path d="M32.0874 71.7958C31.994 71.7952 31.901 71.7829 31.8107 71.759C26.3301 70.3071 21.3321 67.4291 17.3252 63.4178C13.3184 59.4066 10.4458 54.4055 8.99987 48.9233C8.96059 48.785 8.94929 48.6403 8.96664 48.4975C8.98398 48.3548 9.02962 48.217 9.10088 48.0921C9.17215 47.9672 9.26761 47.8578 9.38167 47.7703C9.49573 47.6828 9.62611 47.6189 9.76517 47.5823C9.90423 47.5458 10.0492 47.5374 10.1915 47.5576C10.3339 47.5778 10.4708 47.6261 10.5942 47.6999C10.7177 47.7736 10.8251 47.8712 10.9104 47.987C10.9956 48.1028 11.0569 48.2344 11.0907 48.3741C12.4388 53.4872 15.1178 58.1518 18.8549 61.8928C22.5919 65.6339 27.2536 68.3178 32.3653 69.6714C32.6203 69.7375 32.8424 69.8945 32.9898 70.1127C33.1373 70.331 33.2 70.5956 33.1661 70.8568C33.1323 71.1181 33.0042 71.358 32.806 71.5315C32.6078 71.7049 32.353 71.8001 32.0896 71.799L32.0874 71.7958Z" fill="white"/>
<path d="M68.054 55.0484C67.8925 55.048 67.7332 55.0111 67.5881 54.9403C67.3295 54.8167 67.1306 54.5954 67.0351 54.3252C66.9397 54.0549 66.9554 53.7579 67.0789 53.4992C67.8631 51.8525 68.4911 50.1358 68.9545 48.3716C69.0319 48.0994 69.2129 47.8684 69.4586 47.7281C69.7044 47.5878 69.9954 47.5495 70.2691 47.6214C70.5429 47.6933 70.7775 47.8697 70.9226 48.1126C71.0677 48.3556 71.1118 48.6457 71.0454 48.9208C70.5475 50.8176 69.8728 52.6636 69.0302 54.4344C68.9421 54.6184 68.8036 54.7738 68.6308 54.8824C68.4581 54.9911 68.2581 55.0486 68.054 55.0484V55.0484Z" fill="white"/>
<path d="M47.9343 71.7956C47.6711 71.7959 47.4169 71.7002 47.2193 71.5265C47.0217 71.3527 46.8942 71.1129 46.8608 70.8519C46.8274 70.5908 46.8903 70.3266 47.0378 70.1087C47.1852 69.8908 47.4071 69.7341 47.6618 69.6681C50.2978 68.9792 52.8241 67.9239 55.1667 66.5329C55.4125 66.3971 55.7014 66.3621 55.9725 66.4356C56.2435 66.509 56.4753 66.685 56.6189 66.9263C56.7625 67.1677 56.8065 67.4554 56.7417 67.7286C56.6769 68.0018 56.5083 68.2391 56.2716 68.3902C53.7555 69.8867 51.0413 71.0214 48.2089 71.761C48.1193 71.7846 48.0269 71.7963 47.9343 71.7956V71.7956Z" fill="white"/>
<path d="M61.8163 63.8489C61.602 63.8484 61.3927 63.7843 61.215 63.6646C61.0372 63.545 60.8991 63.3752 60.818 63.1769C60.7369 62.9786 60.7165 62.7607 60.7596 62.5508C60.8026 62.3409 60.907 62.1485 61.0595 61.998C61.7792 61.2897 62.4602 60.543 63.0995 59.7613C63.2806 59.5389 63.5426 59.3976 63.8278 59.3684C64.1131 59.3392 64.3982 59.4245 64.6206 59.6056C64.8429 59.7867 64.9843 60.0486 65.0135 60.3339C65.0426 60.6192 64.9573 60.9043 64.7763 61.1267C64.0874 61.9695 63.3534 62.7743 62.5774 63.5375C62.3746 63.7375 62.1011 63.8494 61.8163 63.8489V63.8489Z" fill="white"/>
<path d="M10.0327 33.892C9.93966 33.8923 9.84696 33.8803 9.75704 33.8564C9.48097 33.7832 9.24507 33.6038 9.10085 33.3573C8.95663 33.1107 8.91581 32.8172 8.98731 32.5407C10.4373 27.0579 13.3127 22.0567 17.3214 18.0451C21.3302 14.0335 26.3294 11.1545 31.8111 9.70067C32.0884 9.62742 32.3834 9.6673 32.6312 9.81155C32.8791 9.9558 33.0595 10.1926 33.1327 10.4699C33.206 10.7471 33.1661 11.0421 33.0218 11.29C32.8776 11.5378 32.6408 11.7182 32.3635 11.7915C27.2515 13.1468 22.5894 15.8311 18.8508 19.5717C15.1123 23.3124 12.4305 27.976 11.0781 33.0888C11.0168 33.3192 10.8811 33.5229 10.692 33.6682C10.503 33.8135 10.2712 33.8922 10.0327 33.892V33.892Z" fill="white"/>
<path d="M69.9893 33.8812C69.7506 33.8812 69.5186 33.8022 69.3295 33.6565C69.1404 33.5108 69.0048 33.3066 68.9439 33.0758C67.5907 27.9648 64.9085 23.3032 61.1699 19.5648C57.4313 15.8264 52.7696 13.1444 47.6585 11.7914C47.3813 11.7175 47.1448 11.5364 47.001 11.288C46.8573 11.0397 46.8181 10.7444 46.892 10.4671C46.966 10.1899 47.1471 9.95335 47.3955 9.8096C47.6438 9.66586 47.9391 9.62666 48.2164 9.70063C53.6956 11.153 58.6928 14.0296 62.7005 18.0383C66.7083 22.0469 69.5837 27.0449 71.0348 32.5244C71.1081 32.8009 71.0688 33.0953 70.9255 33.3429C70.7823 33.5905 70.5467 33.7712 70.2704 33.8455C70.1788 33.87 70.0842 33.882 69.9893 33.8812Z" fill="white"/>
<path d="M40.0106 55.5137C36.6617 55.5116 33.4126 54.3728 30.7952 52.2835C28.1779 50.1942 26.3474 47.2783 25.6033 44.013C24.8591 40.7477 25.2456 37.3266 26.6993 34.3096C28.153 31.2926 30.5878 28.8584 33.6052 27.4056C35.6088 26.4626 37.7958 25.9736 40.0101 25.9736C42.2244 25.9736 44.4115 26.4626 46.415 27.4056C49.4353 28.8562 51.8731 31.2898 53.329 34.3076C54.7849 37.3253 55.1725 40.7481 54.4281 44.015C53.6838 47.2819 51.8517 50.1989 49.2322 52.2881C46.6128 54.3773 43.3612 55.5146 40.0106 55.5137V55.5137ZM40.0106 28.1083C36.9056 28.108 33.9093 29.2516 31.5942 31.3208C29.279 33.39 27.8074 36.2395 27.4604 39.3251C27.1134 42.4107 27.9153 45.516 29.7131 48.0477C31.5108 50.5794 34.1782 52.36 37.2058 53.0493C40.2333 53.7387 43.4087 53.2885 46.1253 51.7847C48.8419 50.2809 50.9092 47.8289 51.9323 44.8973C52.9554 41.9656 52.8625 38.7598 51.6715 35.8923C50.4804 33.0248 48.2746 30.6966 45.4755 29.3526C43.7697 28.5349 41.9023 28.1098 40.0106 28.1083V28.1083Z" fill="white"/>
<path d="M45.946 29.4596C45.9051 29.4596 45.8644 29.4574 45.8238 29.4531C45.6827 29.4373 45.546 29.3938 45.4217 29.3251C45.2974 29.2564 45.1879 29.1639 45.0993 29.0529C45.0108 28.9418 44.9449 28.8144 44.9057 28.6779C44.8664 28.5415 44.8543 28.3986 44.8703 28.2575L47.2919 6.76232C47.312 6.58565 47.2945 6.40672 47.2407 6.23725C47.1869 6.06779 47.0978 5.9116 46.9794 5.77893C46.8611 5.64625 46.716 5.54008 46.5537 5.46735C46.3915 5.39463 46.2157 5.357 46.0378 5.35692H33.9838C33.806 5.357 33.6302 5.39463 33.4679 5.46735C33.3057 5.54008 33.1606 5.64625 33.0422 5.77893C32.9238 5.9116 32.8348 6.06779 32.7809 6.23725C32.7271 6.40672 32.7096 6.58565 32.7297 6.76232L35.1503 28.2575C35.1662 28.3986 35.1541 28.5414 35.1148 28.6779C35.0755 28.8144 35.0097 28.9417 34.9212 29.0528C34.8326 29.1638 34.7231 29.2563 34.5988 29.325C34.4745 29.3937 34.3379 29.4372 34.1968 29.4531C34.0556 29.469 33.9128 29.457 33.7763 29.4177C33.6399 29.3784 33.5125 29.3126 33.4014 29.224C33.2904 29.1355 33.1979 29.0259 33.1292 28.9016C33.0605 28.7773 33.017 28.6407 33.0011 28.4996L30.5816 7.00448C30.5279 6.52564 30.5759 6.04086 30.7224 5.58181C30.8688 5.12277 31.1105 4.6998 31.4316 4.34054C31.7527 3.98128 32.146 3.69381 32.5858 3.49694C33.0256 3.30006 33.5019 3.19819 33.9838 3.198H46.0378C46.5197 3.19819 46.9961 3.30006 47.4359 3.49694C47.8756 3.69381 48.2689 3.98128 48.59 4.34054C48.9111 4.6998 49.1528 5.12277 49.2993 5.58181C49.4457 6.04086 49.4937 6.52564 49.44 7.00448L47.0205 28.4996C46.9908 28.7638 46.8647 29.0077 46.6665 29.1848C46.4683 29.3618 46.2118 29.4597 45.946 29.4596V29.4596Z" fill="white"/>
<path d="M5.90485 50.1803C4.9967 50.1803 4.12574 49.8196 3.48348 49.1775C2.84123 48.5355 2.48027 47.6646 2.47998 46.7565V34.7024C2.47999 34.2206 2.58173 33.7442 2.77857 33.3043C2.9754 32.8645 3.26288 32.4712 3.6222 32.1502C3.98152 31.8291 4.40458 31.5876 4.8637 31.4413C5.32282 31.295 5.80765 31.2473 6.28647 31.3014L27.7838 33.7197C27.9249 33.7356 28.0615 33.779 28.1858 33.8477C28.3101 33.9163 28.4197 34.0087 28.5083 34.1197C28.5969 34.2307 28.6628 34.358 28.7021 34.4945C28.7415 34.6309 28.7536 34.7738 28.7378 34.9149C28.722 35.056 28.6785 35.1926 28.6099 35.3169C28.5413 35.4413 28.4488 35.5508 28.3378 35.6394C28.2269 35.728 28.0995 35.7939 27.9631 35.8333C27.8267 35.8726 27.6838 35.8848 27.5427 35.8689L6.04539 33.4495C5.86877 33.4292 5.68986 33.4465 5.5204 33.5002C5.35093 33.5539 5.19473 33.6429 5.06203 33.7612C4.92934 33.8795 4.82314 34.0245 4.75041 34.1867C4.67767 34.3489 4.64004 34.5247 4.63998 34.7024V46.7565C4.64023 46.9343 4.67798 47.11 4.75076 47.2722C4.82354 47.4343 4.92972 47.5793 5.06235 47.6977C5.19499 47.816 5.3511 47.9051 5.52049 47.959C5.68988 48.0129 5.86874 48.0305 6.04539 48.0105L27.5405 45.5911C27.6833 45.5717 27.8284 45.5811 27.9675 45.6187C28.1066 45.6562 28.2368 45.7212 28.3504 45.8098C28.464 45.8983 28.5587 46.0087 28.6291 46.1344C28.6994 46.2602 28.744 46.3987 28.76 46.5418C28.7761 46.685 28.7634 46.8299 28.7227 46.9681C28.6819 47.1062 28.614 47.2349 28.5228 47.3464C28.4317 47.458 28.3192 47.5502 28.1919 47.6176C28.0646 47.6851 27.9251 47.7264 27.7816 47.7392L6.28647 50.1619C6.1597 50.1751 6.03229 50.1812 5.90485 50.1803V50.1803Z" fill="white"/>
<path d="M46.039 78.2605H33.986C33.5041 78.2603 33.0278 78.1585 32.588 77.9616C32.1482 77.7647 31.7549 77.4772 31.4338 77.118C31.1127 76.7587 30.871 76.3357 30.7246 75.8767C30.5781 75.4177 30.5301 74.9329 30.5838 74.454L33.0033 52.9589C33.0165 52.8157 33.0581 52.6765 33.1258 52.5496C33.1934 52.4227 33.2857 52.3106 33.3972 52.2198C33.5088 52.129 33.6373 52.0613 33.7753 52.0208C33.9133 51.9803 34.058 51.9677 34.2009 51.9839C34.3438 52 34.4821 52.0444 34.6076 52.1146C34.7331 52.1849 34.8434 52.2794 34.9319 52.3928C35.0204 52.5061 35.0854 52.636 35.1231 52.7748C35.1608 52.9136 35.1704 53.0585 35.1514 53.2011L32.7319 74.6962C32.7118 74.8729 32.7293 75.0518 32.7831 75.2213C32.837 75.3907 32.926 75.5469 33.0444 75.6796C33.1628 75.8123 33.3079 75.9184 33.4701 75.9912C33.6324 76.0639 33.8082 76.1015 33.986 76.1016H46.039C46.2168 76.1017 46.3927 76.0642 46.555 75.9915C46.7174 75.9188 46.8625 75.8127 46.981 75.6799C47.0994 75.5472 47.1884 75.391 47.2422 75.2214C47.296 75.0519 47.3133 74.8729 47.293 74.6962L44.8735 53.2011C44.8545 53.0585 44.8642 52.9136 44.9018 52.7748C44.9395 52.636 45.0045 52.5061 45.0931 52.3928C45.1816 52.2794 45.2918 52.1849 45.4173 52.1146C45.5429 52.0444 45.6811 52 45.824 51.9839C45.9669 51.9677 46.1116 51.9803 46.2496 52.0208C46.3876 52.0613 46.5162 52.129 46.6277 52.2198C46.7392 52.3106 46.8315 52.4227 46.8992 52.5496C46.9668 52.6765 47.0085 52.8157 47.0217 52.9589L49.4411 74.454C49.4952 74.9329 49.4474 75.4179 49.3011 75.8771C49.1548 76.3362 48.9131 76.7594 48.5919 77.1187C48.2708 77.478 47.8773 77.7655 47.4374 77.9623C46.9974 78.159 46.5209 78.2607 46.039 78.2605V78.2605Z" fill="white"/>
<path d="M74.1179 50.1795C73.9904 50.1793 73.863 50.1721 73.7363 50.1579L52.2411 47.7374C52.0979 47.7242 51.9588 47.6825 51.8319 47.6149C51.7049 47.5472 51.5928 47.4549 51.502 47.3434C51.4112 47.2319 51.3436 47.1033 51.303 46.9653C51.2625 46.8274 51.25 46.6827 51.2661 46.5397C51.2822 46.3968 51.3267 46.2586 51.3969 46.1331C51.4671 46.0075 51.5616 45.8973 51.675 45.8088C51.7884 45.7203 51.9182 45.6553 52.057 45.6176C52.1958 45.5799 52.3407 45.5702 52.4833 45.5893L73.9784 48.0087C74.1551 48.0292 74.334 48.012 74.5036 47.9583C74.6731 47.9047 74.8294 47.8158 74.9621 47.6974C75.0949 47.5791 75.2011 47.434 75.2737 47.2717C75.3464 47.1094 75.3839 46.9336 75.3838 46.7557V34.7028C75.3839 34.5249 75.3464 34.349 75.2737 34.1867C75.2011 34.0243 75.0949 33.8792 74.9622 33.7608C74.8295 33.6424 74.6732 33.5533 74.5037 33.4996C74.3341 33.4458 74.1551 33.4285 73.9784 33.4487L52.4833 35.8671C52.3407 35.8861 52.1958 35.8765 52.057 35.8388C51.9182 35.8011 51.7884 35.7361 51.675 35.6476C51.5616 35.5591 51.4671 35.4488 51.3969 35.3233C51.3267 35.1978 51.2822 35.0595 51.2661 34.9166C51.25 34.7737 51.2625 34.629 51.303 34.491C51.3436 34.353 51.4112 34.2245 51.502 34.113C51.5928 34.0014 51.7049 33.9091 51.8319 33.8415C51.9588 33.7738 52.0979 33.7322 52.2411 33.719L73.7363 31.2995C74.2152 31.2457 74.7002 31.2935 75.1594 31.44C75.6186 31.5864 76.0417 31.8282 76.401 32.1495C76.7603 32.4707 77.0477 32.8642 77.2445 33.3042C77.4412 33.7442 77.5429 34.2208 77.5427 34.7028V46.7568C77.5427 47.2065 77.4542 47.6518 77.282 48.0673C77.1099 48.4828 76.8576 48.8603 76.5396 49.1782C76.2215 49.4961 75.844 49.7483 75.4284 49.9203C75.0129 50.0923 74.5676 50.1808 74.1179 50.1806V50.1795Z" fill="white"/>
<path d="M30.3285 32.1244C30.0418 32.1244 29.7669 32.0104 29.5642 31.8077L25.4885 27.732C25.3852 27.6323 25.3029 27.513 25.2462 27.3811C25.1896 27.2492 25.1597 27.1073 25.1585 26.9638C25.1572 26.8202 25.1846 26.6779 25.239 26.545C25.2933 26.4121 25.3736 26.2914 25.4751 26.1899C25.5766 26.0884 25.6973 26.0082 25.8302 25.9538C25.963 25.8994 26.1054 25.8721 26.2489 25.8733C26.3925 25.8746 26.5343 25.9044 26.6662 25.9611C26.7981 26.0177 26.9174 26.1001 27.0171 26.2033L31.0928 30.279C31.244 30.4302 31.3469 30.6228 31.3886 30.8325C31.4303 31.0422 31.4089 31.2595 31.3271 31.457C31.2453 31.6545 31.1067 31.8234 30.929 31.9421C30.7513 32.0609 30.5423 32.1244 30.3285 32.1244Z" fill="white"/>
<path d="M26.2496 55.5678C26.0358 55.5677 25.8268 55.5043 25.6491 55.3855C25.4713 55.2667 25.3328 55.0979 25.251 54.9004C25.1692 54.7029 25.1478 54.4855 25.1895 54.2758C25.2312 54.0662 25.3341 53.8736 25.4852 53.7224L29.5609 49.6467C29.6606 49.5434 29.7799 49.4611 29.9118 49.4044C30.0437 49.3478 30.1856 49.3179 30.3291 49.3167C30.4727 49.3154 30.615 49.3428 30.7479 49.3972C30.8807 49.4515 31.0014 49.5318 31.1029 49.6333C31.2045 49.7348 31.2847 49.8555 31.3391 49.9884C31.3934 50.1212 31.4208 50.2636 31.4195 50.4071C31.4183 50.5507 31.3885 50.6925 31.3318 50.8244C31.2752 50.9563 31.1928 51.0756 31.0895 51.1753L27.0139 55.251C26.8112 55.4538 26.5362 55.5677 26.2496 55.5678Z" fill="white"/>
<path d="M53.7698 55.5676C53.4831 55.5675 53.2082 55.4536 53.0055 55.2508L48.9309 51.1751C48.734 50.9712 48.625 50.6982 48.6275 50.4147C48.6299 50.1312 48.7436 49.8601 48.9441 49.6597C49.1445 49.4592 49.4157 49.3455 49.6991 49.3431C49.9826 49.3406 50.2557 49.4496 50.4596 49.6465L54.5342 53.7222C54.6853 53.8734 54.7882 54.066 54.8299 54.2756C54.8716 54.4853 54.8502 54.7027 54.7684 54.9002C54.6866 55.0977 54.5481 55.2665 54.3703 55.3853C54.1926 55.5041 53.9836 55.5675 53.7698 55.5676V55.5676Z" fill="white"/>
<path d="M49.6971 32.1276C49.4833 32.1276 49.2743 32.0642 49.0966 31.9454C48.9188 31.8266 48.7803 31.6577 48.6985 31.4602C48.6167 31.2627 48.5953 31.0454 48.637 30.8357C48.6787 30.626 48.7816 30.4334 48.9327 30.2822L53.0084 26.2065C53.2123 26.0096 53.4854 25.9007 53.7688 25.9031C54.0523 25.9056 54.3234 26.0193 54.5239 26.2197C54.7243 26.4202 54.838 26.6913 54.8405 26.9748C54.8429 27.2582 54.734 27.5313 54.5371 27.7352L50.4614 31.8109C50.2587 32.0136 49.9838 32.1276 49.6971 32.1276Z" fill="white"/>
</g>
</svg>
