<svg width="45" height="45" viewBox="0 0 45 45" fill="none" xmlns="http://www.w3.org/2000/svg">
<g opacity="0.3" clip-path="url(#clip0)">
<path d="M36.1036 34.2693L35.1365 33.928V12.6365C35.1364 5.66868 29.4677 0 22.5 0C15.5323 0 9.86363 5.66868 9.86363 12.6364V21.2083C9.86363 26.4238 11.5983 30.2806 13.2168 32.7444L8.89657 34.2693C6.94654 34.9575 5.63644 36.8092 5.63644 38.8772V44.3408C5.63644 44.7049 5.93158 45 6.29562 45C6.65967 45 6.9548 44.7049 6.9548 44.3408V38.8772C6.9548 37.3672 7.91149 36.0151 9.33532 35.5126L16.4175 33.013C17.3298 34.617 18.8242 35.7884 20.6091 36.2868C20.9834 37.5902 21.8309 38.8891 21.9516 39.0701C22.0738 39.2534 22.2796 39.3637 22.5 39.3637C22.7204 39.3637 22.9263 39.2535 23.0485 39.0701C23.1691 38.8891 24.0171 37.5894 24.3913 36.2856C25.3675 36.0133 26.2618 35.5367 27.0296 34.8825C27.5124 36.0084 28.1209 37.0155 28.7203 38.0066C28.9194 38.3359 29.1164 38.662 29.3067 38.9892C28.7091 39.0241 28.1191 39.1877 27.5775 39.4766L22.8529 41.9963C22.6319 42.1142 22.3681 42.1142 22.1471 41.9963L17.4226 39.4766C16.1144 38.7789 14.5744 38.8178 13.3031 39.5806C12.0317 40.3434 11.2727 41.6839 11.2727 43.1665V44.3407C11.2727 44.7048 11.5678 44.9999 11.9319 44.9999C12.2959 44.9999 12.5911 44.7048 12.5911 44.3407V43.1665C12.5911 42.1513 13.1108 41.2334 13.9813 40.711C14.8518 40.1888 15.9063 40.1621 16.8022 40.6398L21.5267 43.1596C22.1362 43.4846 22.8639 43.4846 23.4732 43.1596L28.1978 40.6398C28.7755 40.3317 29.406 40.2304 30.0321 40.3417C30.6025 41.532 30.9997 42.8047 30.9997 44.3407C30.9997 44.7048 31.2949 44.9999 31.6589 44.9999C32.023 44.9999 32.3181 44.7048 32.3181 44.3407C32.3181 41.4083 31.0625 39.3322 29.8483 37.3244C28.5821 35.2309 27.3863 33.2534 27.3863 30.2499V29.5453C27.3863 29.1813 27.0912 28.8861 26.7271 28.8861C26.3631 28.8861 26.0679 29.1813 26.0679 29.5453V30.2499C26.0679 31.4813 26.2484 32.5599 26.5403 33.5387C25.9689 34.1183 25.291 34.5622 24.5412 34.8497C24.3818 33.8666 23.5274 33.1135 22.4999 33.1135C21.4735 33.1135 20.6196 33.8653 20.4592 34.847C19.2648 34.3838 18.2435 33.5154 17.5926 32.4062C18.4208 31.7588 18.9318 30.7543 18.9318 29.6651V27.4195C20.0384 27.8526 21.2418 28.0909 22.4999 28.0909C27.4493 28.0909 31.5571 24.4064 32.2234 19.6364H32.6152C33.0469 19.6364 33.4578 19.5282 33.818 19.3387V44.3408C33.818 44.7049 34.1131 45 34.4771 45C34.8412 45 35.1363 44.7049 35.1363 44.3408V35.3261L35.6646 35.5126C37.0885 36.0151 38.0451 37.3672 38.0451 38.8772V44.3408C38.0451 44.7049 38.3403 45 38.7043 45C39.0684 45 39.3635 44.7049 39.3635 44.3408V38.8772C39.3637 36.8093 38.0535 34.9575 36.1036 34.2693ZM22.5 34.4319C22.9135 34.4319 23.2499 34.7683 23.2499 35.1817C23.2499 35.8116 22.8694 36.6999 22.5 37.4021C22.1305 36.6999 21.7501 35.8116 21.7501 35.1817C21.7501 34.7683 22.0865 34.4319 22.5 34.4319ZM33.7972 11.9589C33.5545 11.9706 33.3105 11.9772 33.0682 11.9772C29.7997 11.9772 26.7 10.9356 24.1039 8.96502C21.7399 7.17064 19.943 4.66822 18.9997 1.87304C20.1025 1.51356 21.2788 1.31836 22.5 1.31836C28.5133 1.31836 33.4456 6.03246 33.7972 11.9589ZM17.6136 29.6651C17.6136 30.5788 17.0347 31.3969 16.1731 31.701L14.5 32.2915C12.9376 30.0041 11.182 26.3008 11.182 21.2083V19.3702C11.52 19.5431 11.8975 19.6364 12.2842 19.6364H12.7762C13.2029 22.6942 15.0434 25.3055 17.6137 26.7864V29.6651H17.6136ZM33.8122 17.3319C33.7568 17.8849 33.231 18.3182 32.6153 18.3181H32.3179V18.2795C32.3179 17.9155 32.023 17.6204 31.659 17.6203C31.659 17.6203 31.6588 17.6203 31.6587 17.6203C31.2949 17.6203 30.9998 17.9151 30.9996 18.2791C30.9961 22.9624 27.1833 26.7726 22.5 26.7726C17.8132 26.7726 14.0001 22.9596 14.0001 18.2728C14.0001 17.9088 13.705 17.6136 13.3409 17.6136C12.9769 17.6136 12.6818 17.9088 12.6818 18.2728V18.3182H12.2841C11.9733 18.3182 11.6753 18.1859 11.4665 17.9551C11.2549 17.7213 11.156 17.4176 11.1878 17.1C11.2433 16.547 11.769 16.1138 12.3849 16.1138H12.6364C14.1654 16.1138 15.4093 14.8699 15.4093 13.3409V12.6364C15.4093 11.7272 15.8267 10.8922 16.5547 10.3453C16.8458 10.1266 16.9045 9.71332 16.6858 9.42231C16.4671 9.13131 16.0539 9.0726 15.7628 9.29127C14.7003 10.0896 14.091 11.3089 14.091 12.6364V13.3409C14.091 14.1429 13.4385 14.7954 12.6365 14.7954H12.3849C12.3849 14.7954 12.3849 14.7954 12.3849 14.7954C11.9532 14.7954 11.5423 14.9036 11.1821 15.0931V12.6365C11.1821 9.14871 12.7682 6.02481 15.2566 3.94699C16.8227 7.41876 19.1391 10.3893 21.9909 12.5728C24.9732 14.8562 28.4068 16.1138 31.6592 16.1138H32.716C33.0269 16.1138 33.3248 16.2461 33.5336 16.4768C33.745 16.7106 33.844 17.0142 33.8122 17.3319ZM32.7159 14.7954H31.6591C28.6947 14.7954 25.5458 13.6343 22.7923 11.5261C20.0427 9.42082 17.8204 6.52975 16.343 3.14429C16.7977 2.84836 17.2747 2.58425 17.7712 2.35503C18.8039 5.37407 20.7511 8.07521 23.3069 10.0152C26.134 12.1613 29.5095 13.2957 33.0682 13.2957C33.3174 13.2957 33.5682 13.2892 33.8181 13.2777V15.0616C33.4801 14.8888 33.1026 14.7954 32.7159 14.7954Z" fill="white"/>
<path d="M19.6027 13.1326C19.4876 12.7873 19.1142 12.6005 18.7689 12.7156L16.6553 13.4203C16.3099 13.5354 16.1233 13.9087 16.2383 14.2541C16.3304 14.5303 16.5876 14.7049 16.8636 14.7049C16.9327 14.7049 17.003 14.694 17.0721 14.6709L19.1857 13.9663C19.5311 13.8514 19.7177 13.478 19.6027 13.1326Z" fill="white"/>
<path d="M18.9319 16.8638V16.1592C18.9319 15.7951 18.6368 15.5 18.2727 15.5C17.9087 15.5 17.6136 15.7951 17.6136 16.1592V16.8638C17.6136 17.2278 17.9087 17.523 18.2727 17.523C18.6368 17.523 18.9319 17.2278 18.9319 16.8638Z" fill="white"/>
<path d="M26.7272 15.5C26.3632 15.5 26.0681 15.7951 26.0681 16.1592V16.8638C26.0681 17.2278 26.3632 17.523 26.7272 17.523C27.0913 17.523 27.3864 17.2278 27.3864 16.8638V16.1592C27.3864 15.7952 27.0913 15.5 26.7272 15.5Z" fill="white"/>
<path d="M25.6705 19.666H19.3295C18.9655 19.666 18.6703 19.9612 18.6703 20.3252C18.6703 22.2426 20.3883 23.8025 22.5 23.8025C24.6117 23.8025 26.3297 22.2425 26.3297 20.3252C26.3297 19.9612 26.0345 19.666 25.6705 19.666ZM22.5 22.4841C21.3826 22.4841 20.4332 21.8534 20.1084 20.9844H24.8916C24.5668 21.8535 23.6174 22.4841 22.5 22.4841Z" fill="white"/>
</g>
<defs>
<clipPath id="clip0">
<rect width="45" height="45" fill="white"/>
</clipPath>
</defs>
</svg>
